<?xml version="1.0" encoding="utf-8"?>
<!-- Generator: Adobe Illustrator 19.1.0, SVG Export Plug-In . SVG Version: 6.00 Build 0)  -->
<svg version="1.1" id="Layer_1" xmlns="http://www.w3.org/2000/svg" xmlns:xlink="http://www.w3.org/1999/xlink" x="0px" y="0px"
	 viewBox="-460 227.9 278.3 176.1" style="enable-background:new -460 227.9 278.3 176.1;" xml:space="preserve">
<style type="text/css">
	.st0{fill:none;stroke:#211F1F;stroke-width:3;stroke-miterlimit:10;}
	.st1{fill:none;stroke:#231F20;stroke-width:3;stroke-miterlimit:10;}
	.st2{fill:#211F1F;stroke:#211F1F;stroke-width:3;stroke-miterlimit:10;}
	.st3{fill:none;stroke:#00B48D;stroke-width:3;stroke-miterlimit:10;}
	.st4{fill:#F6F6F6;}
	.st5{fill:none;stroke:#4DC2BF;stroke-width:3;stroke-miterlimit:10;}
	.st6{fill:none;stroke:#F69679;stroke-width:3;stroke-miterlimit:10;}
</style>
<g>
	<g>
		<path id="XMLID_115_" class="st0" d="M-206.5,343.5c0-2.7-2.3-5-5-5s-5,2.3-5,5l0.4,4.8c0.2,2.7,2,4.6,4.6,4.6
			c2.5,0,4.4-2,4.6-4.6L-206.5,343.5z"/>
		<path id="XMLID_114_" class="st1" d="M-225.7,385.8v-22.2l10.1-2.8c0.8,1.6,2.1,2.7,4,2.7c1.8,0,3.4-1.1,4.2-2.7l10.2,2.8v22.2"/>
		<line id="XMLID_113_" class="st1" x1="-204.2" y1="371.6" x2="-204.2" y2="385.6"/>
		<line id="XMLID_112_" class="st1" x1="-218.7" y1="371.6" x2="-218.7" y2="385.6"/>
	</g>
	<g>
		<path id="XMLID_111_" class="st1" d="M-270,385.8v-22.2l10.1-2.8c0.8,1.6,2.1,2.7,4,2.7c1.8,0,3.4-1.1,4.2-2.7l10.2,2.8v22.2"/>
		<line id="XMLID_110_" class="st1" x1="-248.5" y1="371.6" x2="-248.5" y2="385.6"/>
		<line id="XMLID_109_" class="st1" x1="-262.9" y1="371.6" x2="-262.9" y2="385.6"/>
		<g>
			<path id="XMLID_108_" class="st0" d="M-250.3,343.3c0-2.9-2.4-5.3-5.3-5.3c-2.9,0-5.3,2.4-5.3,5.3l0.6,5.2
				c0.2,2.8,2.1,4.8,4.8,4.8c2.7,0,4.6-2.1,4.8-4.8L-250.3,343.3z"/>
			<line id="XMLID_107_" class="st0" x1="-260.9" y1="343.3" x2="-250.3" y2="343.3"/>
			<circle id="XMLID_106_" class="st2" cx="-255.7" cy="334.6" r="2.7"/>
		</g>
	</g>
	<g>
		<path id="XMLID_105_" class="st0" d="M-295.6,344.2c0-2.7-2.3-5-5-5s-5,2.3-5,5l0.4,4.8c0.2,2.7,2,4.6,4.6,4.6
			c2.5,0,4.4-2,4.6-4.6L-295.6,344.2z"/>
		<path id="XMLID_104_" class="st1" d="M-314.9,386.4v-22.2l10.1-2.8c0.8,1.6,2.1,2.7,4,2.7s3.4-1.1,4.2-2.7l10.2,2.8v22.2"/>
		<line id="XMLID_102_" class="st1" x1="-293.4" y1="372.3" x2="-293.4" y2="386.1"/>
		<line id="XMLID_101_" class="st1" x1="-307.9" y1="372.3" x2="-307.9" y2="386.1"/>
	</g>
	<g>
		<path id="XMLID_100_" class="st1" d="M-359.1,386.4v-22.2l10.1-2.8c0.8,1.6,2.1,2.7,4,2.7c1.8,0,3.4-1.1,4.2-2.7l10.2,2.8v22.2"/>
		<line id="XMLID_99_" class="st1" x1="-337.6" y1="372.3" x2="-337.6" y2="386.1"/>
		<line id="XMLID_98_" class="st1" x1="-352.2" y1="372.3" x2="-352.2" y2="386.1"/>
		<g>
			<path id="XMLID_97_" class="st0" d="M-339.5,343.8c0-2.9-2.4-5.3-5.3-5.3s-5.3,2.4-5.3,5.3l0.6,5.2c0.2,2.8,2.1,4.8,4.8,4.8
				s4.6-2.1,4.8-4.8L-339.5,343.8z"/>
			<line id="XMLID_96_" class="st0" x1="-350.1" y1="343.8" x2="-339.5" y2="343.8"/>
			<circle id="XMLID_95_" class="st2" cx="-344.9" cy="335.2" r="2.7"/>
		</g>
	</g>
	<g>
		<path id="XMLID_94_" class="st0" d="M-386.2,344.2c0-2.7-2.3-5-5-5s-5,2.3-5,5l0.4,4.8c0.2,2.7,2,4.6,4.6,4.6c2.5,0,4.4-2,4.6-4.6
			L-386.2,344.2z"/>
		<path id="XMLID_93_" class="st1" d="M-405.4,386.4v-22.2l10.1-2.8c0.8,1.6,2.1,2.7,4,2.7c1.8,0,3.4-1.1,4.2-2.7l10.2,2.8v22.2"/>
		<line id="XMLID_92_" class="st1" x1="-383.9" y1="372.3" x2="-383.9" y2="386.1"/>
		<line id="XMLID_91_" class="st1" x1="-398.4" y1="372.3" x2="-398.4" y2="386.1"/>
	</g>
	<g>
		<path id="XMLID_90_" class="st1" d="M-449.7,386.4v-22.2l10.1-2.8c0.8,1.6,2.1,2.7,4,2.7s3.4-1.1,4.2-2.7l10.2,2.8v22.2"/>
		<line id="XMLID_89_" class="st1" x1="-428.2" y1="372.3" x2="-428.2" y2="386.1"/>
		<line id="XMLID_88_" class="st1" x1="-442.7" y1="372.3" x2="-442.7" y2="386.1"/>
		<g>
			<path id="XMLID_87_" class="st0" d="M-430.2,343.8c0-2.9-2.4-5.3-5.3-5.3c-2.9,0-5.3,2.4-5.3,5.3l0.6,5.2
				c0.2,2.8,2.1,4.8,4.8,4.8s4.6-2.1,4.8-4.8L-430.2,343.8z"/>
			<line id="XMLID_77_" class="st0" x1="-440.7" y1="343.8" x2="-430.2" y2="343.8"/>
			<circle id="XMLID_76_" class="st2" cx="-435.3" cy="335.2" r="2.7"/>
		</g>
	</g>
	<g>
		<path id="XMLID_75_" class="st0" d="M-227.2,301.9c0-2.7-2.1-5-5-5c-2.7,0-5,2.1-5,5l0.4,4.8c0.2,2.7,2,4.6,4.6,4.6s4.4-2,4.6-4.6
			L-227.2,301.9z"/>
		<path id="XMLID_74_" class="st1" d="M-217.9,333.3v-12.5l-9.3-2.1c-0.9,1.8-2.6,3.3-4.8,3.3c-2.3,0-4-1.3-4.8-3.3l-9.4,1.5v13.2"
			/>
	</g>
	<g>
		<path id="XMLID_73_" class="st1" d="M-266.4,321.2"/>
		<path id="XMLID_72_" class="st1" d="M-264.9,333.3v-12.5l-9.3-2.1c-0.9,1.8-2.6,3.3-4.8,3.3c-2.3,0-4-1.3-4.8-3.3l-9.4,1.5v13.2"
			/>
		<g>
			<path id="XMLID_71_" class="st0" d="M-273.8,300.4c0-2.9-2.4-5.2-5.2-5.2c-2.9,0-5.2,2.4-5.2,5.2l0.6,5.2
				c0.2,2.8,2.1,4.8,4.8,4.8c2.6,0,4.6-2.1,4.8-4.8L-273.8,300.4z"/>
			<line id="XMLID_70_" class="st0" x1="-284.4" y1="300.4" x2="-273.8" y2="300.4"/>
			<circle id="XMLID_69_" class="st2" cx="-279.1" cy="291.8" r="2.7"/>
		</g>
	</g>
	<g>
		<path id="XMLID_68_" class="st0" d="M-317.1,301.9c0-2.7-2.1-5-5-5c-2.7,0-5,2.1-5,5l0.4,4.8c0.2,2.7,2,4.6,4.6,4.6
			c2.5,0,4.4-2,4.6-4.6L-317.1,301.9z"/>
		<path id="XMLID_67_" class="st1" d="M-307.8,333.3v-12.5l-9.3-2.1c-0.9,1.8-2.6,3.3-4.8,3.3c-2.3,0-4-1.3-4.8-3.3l-9.4,1.5v13.2"
			/>
	</g>
	<g>
		<path id="XMLID_66_" class="st0" d="M-406.3,301.9c0-2.7-2.1-5-5-5c-2.7,0-5,2.1-5,5l0.4,4.8c0.2,2.7,2,4.6,4.6,4.6
			c2.5,0,4.4-2,4.6-4.6L-406.3,301.9z"/>
		<path id="XMLID_65_" class="st1" d="M-397,333.3v-12.5l-9.3-2.1c-0.9,1.8-2.6,3.3-4.8,3.3c-2.3,0-4-1.3-4.8-3.3l-9.4,1.5v13.2"/>
	</g>
	<g>
		<path id="XMLID_64_" class="st0" d="M-203.2,261c0-2.7-2.1-5-5-5c-2.7,0-5,2.1-5,5l0.4,4.8c0.2,2.7,2,4.6,4.6,4.6
			c2.5,0,4.4-2,4.6-4.6L-203.2,261z"/>
		<path id="XMLID_63_" class="st1" d="M-194,292.3v-12.5l-9.3-2.1c-0.9,1.8-2.6,3.3-4.8,3.3c-2.3,0-4-1.3-4.8-3.3l-9.4,1.5v13.3"/>
	</g>
	<g>
		<path id="XMLID_62_" class="st3" d="M-242.5,280.3"/>
		<path id="XMLID_61_" class="st1" d="M-241,292.3v-12.5l-9.3-2.1c-0.9,1.8-2.6,3.3-4.8,3.3c-2.3,0-4-1.3-4.8-3.3l-9.4,1.5v13.3"/>
		<g>
			<path id="XMLID_60_" class="st0" d="M-249.9,259.5c0-2.9-2.4-5.2-5.2-5.2c-2.9,0-5.2,2.4-5.2,5.2l0.6,5.2
				c0.2,2.8,2.1,4.8,4.8,4.8s4.6-2.1,4.8-4.8L-249.9,259.5z"/>
			<line id="XMLID_59_" class="st0" x1="-260.3" y1="259.5" x2="-249.9" y2="259.5"/>
			<circle id="XMLID_58_" class="st2" cx="-255.2" cy="250.9" r="2.7"/>
		</g>
	</g>
	<g>
		<path id="XMLID_57_" class="st0" d="M-296.4,261c0-2.7-2.1-5-5-5c-2.7,0-5,2.1-5,5l0.4,4.8c0.2,2.7,2,4.6,4.6,4.6s4.4-2,4.6-4.6
			L-296.4,261z"/>
		<path id="XMLID_56_" class="st1" d="M-287.2,292.3v-12.5l-9.3-2.1c-0.9,1.8-2.6,3.3-4.8,3.3c-2.3,0-4-1.3-4.8-3.3l-9.4,1.5v13.3"
			/>
	</g>
	<g>
		<path id="XMLID_55_" class="st3" d="M-332.4,280.3"/>
		<path id="XMLID_54_" class="st1" d="M-330.8,292.3v-12.5l-9.3-2.1c-0.9,1.8-2.6,3.3-4.8,3.3c-2.3,0-4-1.3-4.8-3.3l-9.4,1.5v13.3"
			/>
		<g>
			<path id="XMLID_53_" class="st0" d="M-339.8,259.5c0-2.9-2.4-5.2-5.2-5.2c-2.9,0-5.2,2.4-5.2,5.2l0.6,5.2
				c0.2,2.8,2.1,4.8,4.8,4.8c2.6,0,4.6-2.1,4.8-4.8L-339.8,259.5z"/>
			<line id="XMLID_52_" class="st0" x1="-350.3" y1="259.5" x2="-339.8" y2="259.5"/>
			<circle id="XMLID_51_" class="st2" cx="-345.1" cy="250.9" r="2.7"/>
		</g>
	</g>
	<g>
		<path id="XMLID_50_" class="st0" d="M-386.8,261c0-2.7-2.1-5-5-5c-2.7,0-5,2.1-5,5l0.4,4.8c0.2,2.7,2,4.6,4.6,4.6s4.4-2,4.6-4.6
			L-386.8,261z"/>
		<path id="XMLID_49_" class="st1" d="M-377.6,292.3v-12.5l-9.3-2.1c-0.9,1.8-2.6,3.3-4.8,3.3c-2.3,0-4-1.3-4.8-3.3l-9.4,1.5v13.3"
			/>
	</g>
	<g>
		<path id="XMLID_48_" class="st3" d="M-421.6,280.3"/>
		<path id="XMLID_47_" class="st1" d="M-420,292.3v-12.5l-9.3-2.1c-0.9,1.8-2.6,3.3-4.8,3.3c-2.3,0-4-1.3-4.8-3.3l-9.4,1.5v13.3"/>
		<g>
			<path id="XMLID_46_" class="st0" d="M-428.9,259.5c0-2.9-2.4-5.2-5.2-5.2c-2.9,0-5.2,2.4-5.2,5.2l0.6,5.2
				c0.2,2.8,2.1,4.8,4.8,4.8c2.6,0,4.6-2.1,4.8-4.8L-428.9,259.5z"/>
			<line id="XMLID_45_" class="st0" x1="-439.5" y1="259.5" x2="-428.9" y2="259.5"/>
			<circle id="XMLID_44_" class="st2" cx="-434.2" cy="250.9" r="2.7"/>
		</g>
	</g>
	<g>
		<path class="st4" d="M-395.6,277.7c0,20.9,27.3,56.7,27.3,56.7s27.4-35.8,27.4-56.7c0-15.2-12.3-27.4-27.4-27.4
			S-395.6,262.5-395.6,277.7z"/>
		<path class="st5" d="M-386.6,279.4c0,14.1,18.3,37.9,18.3,37.9s18.4-23.9,18.4-37.9c0-10.1-8.2-18.3-18.3-18.3
			C-378.3,261-386.6,269.2-386.6,279.4z"/>
		<circle class="st6" cx="-368.2" cy="279.4" r="8.2"/>
	</g>
</g>
</svg>
