<?xml version="1.0" encoding="utf-8"?>
<!-- Generator: Adobe Illustrator 19.1.0, SVG Export Plug-In . SVG Version: 6.00 Build 0)  -->
<svg version="1.1" id="Layer_1" xmlns="http://www.w3.org/2000/svg" xmlns:xlink="http://www.w3.org/1999/xlink" x="0px" y="0px"
	 viewBox="-14 53.7 259 182.3" style="enable-background:new -14 53.7 259 182.3;" xml:space="preserve">
<style type="text/css">
	.st0{fill:none;stroke:#00B48D;stroke-width:2;stroke-miterlimit:10;}
	.st1{fill:#FFFFFF;}
	.st2{fill:none;stroke:#56C5D0;stroke-width:2;stroke-miterlimit:10;}
	.st3{fill:none;stroke:#211F1F;stroke-width:2;stroke-miterlimit:10;}
	.st4{clip-path:url(#SVGID_2_);fill:none;stroke:#56C5D0;stroke-width:2;stroke-miterlimit:10;}
	.st5{clip-path:url(#SVGID_4_);fill:#FFFFFF;stroke:#F68D70;stroke-width:2;stroke-miterlimit:10;}
	.st6{fill:none;stroke:#F68D70;stroke-width:2;stroke-miterlimit:10;}
	.st7{clip-path:url(#SVGID_6_);fill:#FFFFFF;stroke:#211F1F;stroke-width:2;stroke-miterlimit:10;}
</style>
<g>
	<path id="XMLID_175_" class="st0" d="M135.7,148.8"/>
	<path id="XMLID_174_" class="st0" d="M137.7,153.5"/>
	<polygon id="XMLID_173_" class="st1" points="136.5,154.3 140,154.3 140,152.8 136.1,152.8 	"/>
	<g id="XMLID_171_">
		<polyline id="XMLID_172_" class="st2" points="141.5,173.3 145,199.5 132.4,199.5 		"/>
	</g>
	<path id="XMLID_170_" class="st3" d="M135.1,201.8l-1.2,5l-17.2,23.3l-2.9-2c4-7.3,6.4-16,13.4-22.1l0.9-4.2"/>
	<path id="XMLID_169_" class="st3" d="M138,202.3c0.6,6.5,6.5,30.1,6.5,30.1h3.5l-3.1-30.7"/>
	<path id="XMLID_168_" class="st2" d="M127.8,154.2c0,2.6,0.6,5.8,1.1,8.2c1,4.2,2.4,10.3,2.4,10.3l-7.5,26.9h12.6"/>
	<line id="XMLID_167_" class="st3" x1="149.9" y1="234.8" x2="143.8" y2="234.8"/>
	<line id="XMLID_166_" class="st3" x1="116.7" y1="233.7" x2="111.3" y2="229.9"/>
	<rect id="XMLID_165_" x="122.2" y="201.4" class="st1" width="25.8" height="1"/>
	<g id="XMLID_162_">
		<g>
			<defs>
				<polyline id="SVGID_1_" points="138.3,154.7 140.8,163.3 146,156.1 142.5,154.2 137.3,154.2 				"/>
			</defs>
			<clipPath id="SVGID_2_">
				<use xlink:href="#SVGID_1_"  style="overflow:visible;"/>
			</clipPath>
			<path id="XMLID_164_" class="st4" d="M138.1,150.4c1.8,2.5,3.4,4.5,3.1,6.8c-0.2,1.8-1.6,3.7-2.3,4.5"/>
		</g>
	</g>
	<path id="XMLID_161_" class="st3" d="M154,182.5c0.3-0.6,0.4-1.3,0.3-1.9c-0.2-1.3-1-2.4-2.2-3l-11.5-9c0,0-4.4-12.1-6-16.4
		c-1.8-4.9-5.1-4.4-5.1-4.4c-1.5,1.3-2.2,1.9-2.2,5"/>
	<g id="XMLID_158_">
		<g>
			<defs>
				<polygon id="SVGID_3_" points="140.3,133.8 132.8,133.8 128.1,139.5 125.4,139.5 125.4,125.3 140.3,125.3 				"/>
			</defs>
			<clipPath id="SVGID_4_">
				<use xlink:href="#SVGID_3_"  style="overflow:visible;"/>
			</clipPath>
			<circle id="XMLID_160_" class="st5" cx="132.8" cy="133.6" r="4.9"/>
		</g>
	</g>
	<line id="XMLID_157_" class="st6" x1="133.6" y1="132.9" x2="137.4" y2="132.9"/>
	<polygon id="XMLID_156_" class="st1" points="138,173.3 147.9,179.3 145,174 140,170.3 	"/>
	<path id="XMLID_155_" class="st6" d="M129.4,130.1l-0.8-0.6c-2.3-1.9-5.8-0.2-5.8,2.8v3.9c0,1.8-0.7,4-3.2,4.7c0,0,0.6,3.5,4.6,3.5
		c2.6,0,4-2,4-3.1"/>
	<g id="XMLID_152_">
		<g>
			<defs>
				<path id="SVGID_5_" d="M130.2,144.3l2.2-9.3c2.9,0,5,0,6.6,0l-0.9,12.6L130.2,144.3z"/>
			</defs>
			<clipPath id="SVGID_6_">
				<use xlink:href="#SVGID_5_"  style="overflow:visible;"/>
			</clipPath>
			<path id="XMLID_154_" class="st7" d="M131.8,144.7l1.1-2.9c3,0.6,4.7-1.6,4.7-4.3c0-0.9,0-4.4,0-5.5"/>
		</g>
	</g>
</g>
</svg>
