<?xml version="1.0" encoding="utf-8"?>
<!-- Generator: Adobe Illustrator 19.1.0, SVG Export Plug-In . SVG Version: 6.00 Build 0)  -->
<svg version="1.1" id="Layer_1" xmlns="http://www.w3.org/2000/svg" xmlns:xlink="http://www.w3.org/1999/xlink" x="0px" y="0px"
	 viewBox="-14 53.7 259 182.3" style="enable-background:new -14 53.7 259 182.3;" xml:space="preserve">
<style type="text/css">
	.st0{fill:none;stroke:#211F1F;stroke-width:2;stroke-miterlimit:10;}
	.st1{fill:none;stroke:#6A817C;stroke-width:2;stroke-miterlimit:10;}
	.st2{clip-path:url(#SVGID_2_);fill:none;stroke:#211F1F;stroke-width:2;stroke-miterlimit:10;}
	.st3{fill:#FFFFFF;}
	.st4{clip-path:url(#SVGID_4_);fill:#FFFFFF;stroke:#211F1F;stroke-width:2;stroke-miterlimit:10;}
</style>
<g>
	<line id="XMLID_190_" class="st0" x1="91.5" y1="234.8" x2="99.2" y2="234.8"/>
	<g>
		<line id="XMLID_189_" class="st0" x1="95.1" y1="175.8" x2="100.2" y2="175.8"/>
		<path id="XMLID_188_" class="st0" d="M92.9,174.9c0,12,0,56.2,0,56.2h4l6-57.1"/>
		<path id="XMLID_187_" class="st1" d="M92.9,173.5c0-7.2-4.7-16.2-4.7-21.5s4.6-10.8,4.6-10.8"/>
		<polyline id="XMLID_186_" class="st1" points="98.7,151.2 104.4,162.5 116.7,169.4 115.1,173.3 		"/>
		<line id="XMLID_185_" class="st1" x1="102.8" y1="165.6" x2="102.8" y2="172.9"/>
		<g id="XMLID_182_">
			<g>
				<defs>
					<polygon id="SVGID_1_" points="103.5,127.4 98.9,131.3 97.4,132.3 91.2,134.5 90.9,125.6 99.9,123.3 					"/>
				</defs>
				<clipPath id="SVGID_2_">
					<use xlink:href="#SVGID_1_"  style="overflow:visible;"/>
				</clipPath>
				<path id="XMLID_184_" class="st2" d="M97.6,135.9c-3,0-5.4-2.4-5.4-5.4c0-3,2.4-5.4,5.4-5.4c1.7,0,3.3,0.8,4.2,2.1
					c-1.4,1.5-3.6,2.3-6.1,2.3"/>
			</g>
		</g>
		<rect id="XMLID_181_" x="90.6" y="172.9" class="st3" width="14.1" height="2.1"/>
		<line id="XMLID_180_" class="st1" x1="92" y1="140.1" x2="98.7" y2="145.6"/>
		<polygon id="XMLID_179_" class="st3" points="100.2,167.5 113.8,172.6 106.4,165.6 100.2,163.3 		"/>
		<g id="XMLID_176_">
			<g>
				<defs>
					<path id="SVGID_3_" d="M94.3,138.5l3.3-7.4c2.1,1.3,4.3-0.3,6.2-1.9l-0.5,13.1l-2.4,1.5L94.3,138.5z"/>
				</defs>
				<clipPath id="SVGID_4_">
					<use xlink:href="#SVGID_3_"  style="overflow:visible;"/>
				</clipPath>
				<path id="XMLID_178_" class="st4" d="M96.2,144.1l1.6-6.2c3,0.6,4.7-1.6,4.7-4.3c0-0.9,0-4.4,0-5.5"/>
			</g>
		</g>
	</g>
</g>
</svg>
