<?xml version="1.0" encoding="utf-8"?>
<!-- Generator: Adobe Illustrator 19.1.0, SVG Export Plug-In . SVG Version: 6.00 Build 0)  -->
<svg version="1.1" id="Layer_1" xmlns="http://www.w3.org/2000/svg" xmlns:xlink="http://www.w3.org/1999/xlink" x="0px" y="0px"
	 viewBox="-14 53.7 259 182.3" style="enable-background:new -14 53.7 259 182.3;" xml:space="preserve">
<style type="text/css">
	.st0{fill:none;stroke:#211F1F;stroke-width:2;stroke-miterlimit:10;}
	.st1{fill:none;stroke:#67506C;stroke-width:2;stroke-miterlimit:10;}
	.st2{clip-path:url(#SVGID_2_);fill:none;stroke:#6A817C;stroke-width:2;stroke-miterlimit:10;}
	.st3{fill:#F5F6F6;}
	.st4{clip-path:url(#SVGID_4_);fill:#FFFFFF;stroke:#211F1F;stroke-width:2;stroke-miterlimit:10;}
</style>
<g>
	<path id="XMLID_134_" class="st0" d="M192.2,197.7c0,12,0,33.6,0,33.6h4l4.5-56"/>
	<line id="XMLID_133_" class="st0" x1="190.6" y1="234.8" x2="198.3" y2="234.8"/>
	<path id="XMLID_132_" class="st1" d="M187.3,150c0-5.3,4.8-6.4,4.8-6.4s8.6,6.1,9.3,13.2l-0.6,16.5"/>
	<path id="XMLID_131_" class="st0" d="M187.9,191.3c2,0,3.7-1.7,3.7-3.7"/>
	<g id="XMLID_128_">
		<g>
			<defs>
				<polygon id="SVGID_1_" points="203.6,123.7 197.2,130.5 195.9,132.1 187.6,134.7 187.3,125.8 196.2,123.5 				"/>
			</defs>
			<clipPath id="SVGID_2_">
				<use xlink:href="#SVGID_1_"  style="overflow:visible;"/>
			</clipPath>
			<path id="XMLID_130_" class="st2" d="M194,136.1c-3,0-5.4-2.4-5.4-5.4s2.4-5.4,5.4-5.4c1.7,0,3,0.2,5.5,0.4
				c0.1,1.8-2.7,3.3-4.7,3.6c-0.7,1.4-0.7,2.6-0.5,3.8"/>
		</g>
	</g>
	<rect id="XMLID_127_" x="190.1" y="173.1" class="st3" width="14.1" height="2.1"/>
	<polyline id="XMLID_126_" class="st1" points="191.6,150.4 191.6,185 187.8,185 	"/>
	<g id="XMLID_122_">
		<g>
			<defs>
				<path id="SVGID_3_" d="M191.1,138.7l3.3-7.4c2.1,1.3,4.3-0.3,6.2-1.9l-0.5,13.1l-2.4,1.5L191.1,138.7z"/>
			</defs>
			<clipPath id="SVGID_4_">
				<use xlink:href="#SVGID_3_"  style="overflow:visible;"/>
			</clipPath>
			<path id="XMLID_124_" class="st4" d="M193,144.3l1.6-6.2c3,0.6,4.7-1.6,4.7-4.3c0-0.9,0-4.4,0-5.5"/>
		</g>
	</g>
</g>
</svg>
