<?xml version="1.0" encoding="utf-8"?>
<!-- Generator: Adobe Illustrator 19.1.0, SVG Export Plug-In . SVG Version: 6.00 Build 0)  -->
<svg version="1.1" id="Layer_1" xmlns="http://www.w3.org/2000/svg" xmlns:xlink="http://www.w3.org/1999/xlink" x="0px" y="0px"
	 viewBox="312 61.5 911.3 167.5" style="enable-background:new 312 61.5 911.3 167.5;" xml:space="preserve">
<style type="text/css">
	.st0{fill:none;stroke:#F69679;stroke-width:3;stroke-linecap:square;stroke-miterlimit:10;}
	.st1{fill:none;stroke:#6A817C;stroke-width:3;stroke-linecap:square;stroke-miterlimit:10;}
	.st2{fill:none;stroke:#221F1F;stroke-width:3;stroke-linecap:square;stroke-miterlimit:10;}
	.st3{fill:none;stroke:#56C5D0;stroke-width:3;stroke-linecap:square;stroke-miterlimit:10;}
</style>
<polyline class="st0" points="338.7,196.3 323.3,196.3 323.3,220.3 "/>
<g>
	<path class="st1" d="M344,220.3"/>
	<path class="st1" d="M373.9,220.3"/>
	<polyline class="st1" points="376.2,220.3 376.2,183.1 360.7,167.7 345.3,183.1 345.3,220.3 	"/>
	<path class="st1" d="M345.2,220.3"/>
	<g>
		<line class="st2" x1="368.7" y1="190.7" x2="368.7" y2="188.1"/>
		<line class="st2" x1="352.7" y1="190.7" x2="352.7" y2="188.1"/>
		<line class="st2" x1="360.7" y1="190.7" x2="360.7" y2="188.1"/>
		<line class="st2" x1="368.7" y1="202.5" x2="368.7" y2="200"/>
		<line class="st2" x1="352.7" y1="202.5" x2="352.7" y2="200"/>
		<line class="st2" x1="360.7" y1="202.5" x2="360.7" y2="200"/>
	</g>
	<line class="st0" x1="368.7" y1="220.3" x2="368.7" y2="213.2"/>
	<path class="st1" d="M345.2,220.3"/>
</g>
<g>
	<polyline class="st1" points="399.2,220.3 399.2,157.3 414.6,141.8 430.1,157.3 430.1,220.3 	"/>
	<g>
		<line class="st3" x1="406.6" y1="193.5" x2="406.6" y2="190.9"/>
		<line class="st3" x1="422.6" y1="193.5" x2="422.6" y2="190.9"/>
		<line class="st3" x1="414.6" y1="193.5" x2="414.6" y2="190.9"/>
		<line class="st3" x1="406.6" y1="171" x2="406.6" y2="168.5"/>
		<line class="st3" x1="422.6" y1="171" x2="422.6" y2="168.5"/>
		<line class="st3" x1="414.6" y1="171" x2="414.6" y2="168.5"/>
		<line class="st3" x1="406.6" y1="182.8" x2="406.6" y2="180.3"/>
		<line class="st3" x1="422.6" y1="182.8" x2="422.6" y2="180.3"/>
		<line class="st3" x1="414.6" y1="182.8" x2="414.6" y2="180.3"/>
	</g>
	<line class="st0" x1="406.6" y1="220.3" x2="406.6" y2="213.2"/>
	<path class="st1" d="M399.2,220.3"/>
	<path class="st1" d="M430.1,220.3"/>
</g>
</svg>
