<?xml version="1.0" encoding="utf-8"?>
<!-- Generator: Adobe Illustrator 19.1.0, SVG Export Plug-In . SVG Version: 6.00 Build 0)  -->
<svg version="1.1" id="Layer_1" xmlns="http://www.w3.org/2000/svg" xmlns:xlink="http://www.w3.org/1999/xlink" x="0px" y="0px"
	 viewBox="312 61.5 911.3 167.5" style="enable-background:new 312 61.5 911.3 167.5;" xml:space="preserve">
<style type="text/css">
	.st0{fill:#FFFFFF;}
	.st1{fill:none;stroke:#000000;stroke-width:3;stroke-linecap:square;stroke-miterlimit:10;}
</style>
<g>
	<path class="st0" d="M1015.4,219.1V186V219.1z"/>
	<polyline class="st1" points="1015.4,186 1015.4,203.4 1015.4,219.1 	"/>
	<path class="st0" d="M1003.1,219.1V186V219.1z"/>
	<polyline class="st1" points="1003.1,186 1003.1,202.6 1003.1,219.1 	"/>
	<path class="st0" d="M990.9,219.1V186V219.1z"/>
	<polyline class="st1" points="990.9,186 990.9,203.4 990.9,219.1 	"/>
	<path class="st0" d="M978.6,219.1V186V219.1z"/>
	<polyline class="st1" points="978.6,186 978.6,202.6 978.6,219.1 	"/>
	<path class="st0" d="M966.3,219.1V186V219.1z"/>
	<polyline class="st1" points="966.3,186 966.3,201 966.3,219.1 	"/>
	<path class="st0" d="M954,219.1V186V219.1z"/>
	<polyline class="st1" points="954,186 954,201.2 954,219.1 	"/>
</g>
</svg>
