<?xml version="1.0" encoding="utf-8"?>
<!-- Generator: Adobe Illustrator 19.1.0, SVG Export Plug-In . SVG Version: 6.00 Build 0)  -->
<svg version="1.1" id="Layer_1" xmlns="http://www.w3.org/2000/svg" xmlns:xlink="http://www.w3.org/1999/xlink" x="0px" y="0px"
	 viewBox="0 0 911.3 167.5" style="enable-background:new 0 0 911.3 167.5;" xml:space="preserve">
<style type="text/css">
	.st0{fill:none;stroke:#211F1F;stroke-width:3;stroke-miterlimit:10;}
	.st1{fill:none;stroke:#6A817C;stroke-width:3;stroke-miterlimit:10;}
	.st2{fill:#FFFFFF;}
	.st3{fill:none;}
	.st4{fill:none;stroke:#F68D71;stroke-width:3;stroke-miterlimit:10;}
	.st5{fill:none;stroke:#F68D70;stroke-width:3;stroke-miterlimit:10;}
</style>
<g>
	<path class="st0" d="M348.8,162l-6.5-48.4c0,0,22.6-25.5,91.4-25.5c72.2,0,91.4,25.5,91.4,25.5l-6.2,48.4"/>
</g>
<g>
	<g>
		<polyline class="st1" points="358.9,79.9 378.5,81.8 360.8,90.9 		"/>
		
			<rect x="357.9" y="74" transform="matrix(0.9848 -0.1735 0.1735 0.9848 -9.2786 63.6095)" class="st2" width="2.7" height="21.7"/>
		<line class="st0" x1="359.8" y1="102" x2="355.2" y2="79.4"/>
	</g>
	<g>
		<polyline class="st1" points="515.3,81.8 532.6,86.6 513.6,92.5 		"/>
		
			<rect x="512.8" y="75.5" transform="matrix(0.9839 0.1786 -0.1786 0.9839 23.6838 -90.4288)" class="st2" width="2.7" height="21.7"/>
		<line class="st0" x1="507.8" y1="102.1" x2="512.4" y2="79.5"/>
	</g>
	<g>
		<polyline class="st1" points="437.2,67.1 456.2,72.4 437.2,78.3 		"/>
		<rect x="435.3" y="61.3" class="st2" width="2.7" height="21.7"/>
		<line class="st0" x1="433.7" y1="88.1" x2="433.7" y2="65.5"/>
	</g>
</g>
<polygon class="st3" points="540.2,61.8 336.6,61.8 336.6,159.2 529.1,159.2 540.2,159.2 "/>
<g>
	<path class="st4" d="M360,147.3c0,0,32.9-7.7,73.7-7.7c40.8,0,73.7,7.7,73.7,7.7"/>
	<path class="st5" d="M360,123c0,0,24.7-10.2,73.7-10.2s73.7,10.2,73.7,10.2"/>
	<polygon class="st2" points="367.1,159.8 351,161.7 345.4,116.6 361.6,114.7 	"/>
	<polygon class="st2" points="500.5,159.9 516.6,161.8 522.2,116.8 506,114.9 	"/>
</g>
</svg>
