<?xml version="1.0" encoding="utf-8"?>
<svg version="1.1" id="Layer_1" xmlns="http://www.w3.org/2000/svg" xmlns:xlink="http://www.w3.org/1999/xlink" x="0px" y="0px"
	 viewBox="0 0 30.5 31" style="enable-background:new 0 0 30.5 31;" xml:space="preserve">
<style type="text/css">
	.st0{fill:none;stroke:#221F1F;stroke-miterlimit:10;}
	.st1{fill:none;stroke:#F68D70;stroke-miterlimit:10;}
</style>
<g>
	<g>
		<polyline class="st0" points="6.9,9.6 6.9,3 13.2,1 		"/>
		<path class="st1" d="M11.3,24.5c-0.7,0.4-1.5,0.6-2.4,0.6c-2.6,0-4.7-2.1-4.7-4.7s2.1-4.7,4.7-4.7c0.9,0,1.7,0.2,2.4,0.6"/>
		<polyline class="st0" points="7.2,11 0.7,11 0.7,9.6 13.2,9.6 13.2,11 11.8,11 11.1,30.4 2.7,30.4 2,11 		"/>
	</g>
	<g>
		<rect x="17.1" y="27.3" class="st0" width="11.6" height="3.1"/>
		<path class="st0" d="M28.7,19H17.1v-3.1c0,0,0.5-2.1,5.8-2.1s5.8,2.1,5.8,2.1V19z"/>
		<rect x="16" y="23.8" class="st1" width="13.8" height="1.7"/>
		<path class="st0" d="M28.7,21.5c-1.4,0-1.4-1.2-2.9-1.2c-1.4,0-1.4,1.2-2.9,1.2c-1.5,0-1.5-1.2-2.9-1.2s-1.5,1.2-2.9,1.2"/>
	</g>
</g>
</svg>
