<?xml version="1.0" encoding="utf-8"?>
<!-- Generator: Adobe Illustrator 19.1.0, SVG Export Plug-In . SVG Version: 6.00 Build 0)  -->
<svg version="1.1" id="Layer_1" xmlns="http://www.w3.org/2000/svg" xmlns:xlink="http://www.w3.org/1999/xlink" x="0px" y="0px"
	 viewBox="0 0 265.9 165.1" style="enable-background:new 0 0 265.9 165.1;" xml:space="preserve">
<style type="text/css">
	.st0{fill:#FFFFFF;stroke:#67506C;stroke-width:2;stroke-miterlimit:10;stroke-dasharray:4,4;}
	.st1{fill:none;stroke:#000000;stroke-width:2;stroke-miterlimit:10;}
	.st2{fill:none;stroke:#000000;stroke-width:4;stroke-miterlimit:10;}
	.st3{fill:none;stroke:#4EC2BF;stroke-width:4;stroke-miterlimit:10;}
	
		.st4{fill:none;stroke:#50C3CB;stroke-width:2;stroke-linecap:round;stroke-linejoin:round;stroke-miterlimit:10;stroke-dasharray:0,7;}
</style>
<g>
	<g>
		<g>
			
				<rect x="142" y="1.6" transform="matrix(1 3.199715e-03 -3.199715e-03 1 8.442934e-02 -0.6499)" class="st0" width="122.3" height="48.9"/>
		</g>
		<g>
			<line class="st1" x1="220.1" y1="24.7" x2="220" y2="43.6"/>
			<line class="st1" x1="245.3" y1="24.8" x2="245.2" y2="43.6"/>
			<line class="st1" x1="247.9" y1="24.8" x2="247.9" y2="43.7"/>
			<line class="st1" x1="223.3" y1="24.7" x2="223.2" y2="43.6"/>
			<line class="st1" x1="234.9" y1="24.7" x2="234.9" y2="43.6"/>
			<line class="st1" x1="230.6" y1="24.7" x2="230.5" y2="43.6"/>
			<line class="st1" x1="228.2" y1="24.7" x2="228.1" y2="43.6"/>
			<line class="st1" x1="238.4" y1="24.8" x2="238.4" y2="43.6"/>
			<line class="st1" x1="253.5" y1="24.8" x2="253.4" y2="43.7"/>
			<line class="st1" x1="256.2" y1="24.8" x2="256.2" y2="43.7"/>
			<line class="st1" x1="242.3" y1="24.8" x2="242.2" y2="43.6"/>
		</g>
		<g>
			<line class="st2" x1="150.3" y1="14.2" x2="209" y2="14.4"/>
			<line class="st3" x1="174.6" y1="24.1" x2="150.3" y2="24"/>
			<line class="st3" x1="150.2" y1="33.9" x2="185.7" y2="34"/>
		</g>
	</g>
</g>
<polyline class="st4" points="203.1,63 203.1,153.2 153.6,153.2 "/>
</svg>
