<?xml version="1.0" encoding="utf-8"?>
<!-- Generator: Adobe Illustrator 19.1.0, SVG Export Plug-In . SVG Version: 6.00 Build 0)  -->
<svg version="1.1" id="Layer_1" xmlns="http://www.w3.org/2000/svg" xmlns:xlink="http://www.w3.org/1999/xlink" x="0px" y="0px"
	 viewBox="312 61.5 911.3 167.5" style="enable-background:new 312 61.5 911.3 167.5;" xml:space="preserve">
<style type="text/css">
	.st0{fill:none;stroke:#00B188;stroke-width:3;stroke-miterlimit:10;}
	.st1{fill:none;stroke:#57C6CF;stroke-width:3;stroke-miterlimit:10;}
	.st2{fill:none;stroke:#221F1F;stroke-width:3;stroke-miterlimit:10;}
	.st3{fill:#FFFFFF;stroke:#F68D71;stroke-width:3;stroke-miterlimit:10;}
	.st4{fill:none;stroke:#F68D71;stroke-width:3;stroke-miterlimit:10;}
	.st5{fill:none;stroke:#17181B;stroke-width:3;stroke-miterlimit:10;}
	.st6{fill:#FFFFFF;}
	.st7{fill:#FFFFFF;stroke:#221F1F;stroke-width:3;stroke-miterlimit:10;}
</style>
<path id="XMLID_33_" class="st0" d="M1084.7,147.7"/>
<path id="XMLID_32_" class="st0" d="M1089.2,158.5"/>
<g id="XMLID_30_">
	<line id="XMLID_31_" class="st1" x1="1095" y1="157.2" x2="1101.4" y2="220.7"/>
</g>
<path id="XMLID_29_" class="st1" d="M1066.9,159.9c0,5.9,1.3,13.4,2.6,18.7c2.3,9.5,5.5,23.3,5.5,23.3l-4.7,18"/>
<path id="XMLID_28_" class="st2" d="M1065.7,156.5c0-7.9,4-10.9,13.5-10.7c0.7,0,18.6,0.9,30,1.5c6.1,0.3,12.2-1,17.6-3.8l23.6-13.2
	c1.9-1.1,3.1-3.1,3.1-5.3v-4.7"/>
<circle id="XMLID_27_" class="st3" cx="1078" cy="114.5" r="11.2"/>
<line id="XMLID_24_" class="st4" x1="1079.9" y1="113.1" x2="1088.6" y2="113.1"/>
<path id="XMLID_23_" class="st4" d="M1070.2,106.5l-1.7-1.3c-5.3-4.2-13.2-0.4-13.2,6.4v8.8c0,4-1.5,9.2-7.3,10.7
	c0,0,1.4,7.9,10.5,7.9c6,0,9-4.5,9-7"/>
<line class="st1" x1="1145.7" y1="126.1" x2="1145.7" y2="109.5"/>
<path class="st5" d="M1103.5,156.5l14.8,14.5c4.2,4.1,4.4,10.8,0.5,15.2l-13.1,14.8"/>
<polygon class="st6" points="1095,115 1078,115 1070.9,126.1 1072.6,128 1093.3,127.8 1095,122.1 "/>
<path id="XMLID_22_" class="st7" d="M1075.7,139.7l2.6-6.5c6.8,1.5,10.7-3.7,10.7-9.8c0-2.1,0-3.6,0-6.1"/>
</svg>
