<?xml version="1.0" encoding="utf-8"?>
<!-- Generator: Adobe Illustrator 19.1.0, SVG Export Plug-In . SVG Version: 6.00 Build 0)  -->
<svg version="1.1" id="Layer_1" xmlns="http://www.w3.org/2000/svg" xmlns:xlink="http://www.w3.org/1999/xlink" x="0px" y="0px"
	 viewBox="0 0 565.7 148.5" style="enable-background:new 0 0 565.7 148.5;" xml:space="preserve">
<style type="text/css">
	.st0{fill:none;stroke:#221F1F;stroke-width:3;stroke-miterlimit:10;}
	.st1{fill:none;stroke:#F69679;stroke-width:3;stroke-miterlimit:10;}
	.st2{fill:none;stroke:#211F1F;stroke-width:3;stroke-miterlimit:10;}
	.st3{fill:none;stroke:#56C5D0;stroke-width:3;stroke-miterlimit:10;}
	.st4{fill:none;stroke:#F3957D;stroke-width:3;stroke-miterlimit:10;}
	.st5{fill:none;stroke:#82766F;stroke-width:3;stroke-miterlimit:10;}
	.st6{fill:none;stroke:#4EC2BF;stroke-width:3;stroke-miterlimit:10;}
	
		.st7{fill:none;stroke:#59C3CB;stroke-width:2;stroke-linecap:round;stroke-linejoin:round;stroke-miterlimit:10;stroke-dasharray:0,5.2822;}
</style>
<g>
	<g>
		<path class="st0" d="M500.5,38.2c0,14.5-19,39.2-19,39.2s-19-24.7-19-39.2c0-10.5,8.5-19,19-19C492,19.2,500.5,27.7,500.5,38.2z"
			/>
		<circle class="st1" cx="481.5" cy="38.2" r="8.6"/>
	</g>
	<g>
		<g>
			<line class="st2" x1="350.1" y1="136.7" x2="350.1" y2="143.3"/>
			<line class="st2" x1="376.7" y1="136.7" x2="376.7" y2="143.3"/>
		</g>
		<polygon class="st3" points="379,118.2 379,103.9 347.8,103.9 347.8,118.2 343.7,118.2 343.7,132.4 383.1,132.4 383.1,118.2 		"/>
		<line class="st4" x1="373.7" y1="118.2" x2="353.1" y2="118.2"/>
		<g>
			<circle class="st2" cx="350.7" cy="125.7" r="2"/>
			<circle class="st2" cx="376.1" cy="125.7" r="2"/>
		</g>
	</g>
	<g>
		<g>
			<line class="st2" x1="409.9" y1="136.7" x2="409.9" y2="143.3"/>
			<line class="st2" x1="436.4" y1="136.7" x2="436.4" y2="143.3"/>
		</g>
		<polygon class="st5" points="438.8,118.2 438.8,103.9 407.5,103.9 407.5,118.2 403.5,118.2 403.5,132.4 442.9,132.4 442.9,118.2 
					"/>
		<line class="st6" x1="433.5" y1="118.2" x2="412.9" y2="118.2"/>
		<g>
			<circle class="st2" cx="410.5" cy="125.7" r="2"/>
			<circle class="st2" cx="435.9" cy="125.7" r="2"/>
		</g>
	</g>
	<g>
		<g>
			<line class="st2" x1="530.8" y1="136.7" x2="530.8" y2="143.4"/>
			<line class="st2" x1="557.4" y1="136.7" x2="557.4" y2="143.4"/>
		</g>
		<polygon class="st3" points="559.7,118.2 559.7,103.9 528.4,103.9 528.4,118.2 524.4,118.2 524.4,132.4 563.8,132.4 563.8,118.2 
					"/>
		<line class="st4" x1="554.4" y1="118.2" x2="533.8" y2="118.2"/>
		<g>
			<circle class="st2" cx="531.4" cy="125.7" r="2"/>
			<circle class="st2" cx="556.8" cy="125.7" r="2"/>
		</g>
	</g>
	<line class="st7" x1="481.5" y1="136.4" x2="481.5" y2="86.2"/>
</g>
</svg>
