<?xml version="1.0" encoding="utf-8"?>
<!-- Generator: Adobe Illustrator 19.1.0, SVG Export Plug-In . SVG Version: 6.00 Build 0)  -->
<svg version="1.1" id="Layer_1" xmlns="http://www.w3.org/2000/svg" xmlns:xlink="http://www.w3.org/1999/xlink" x="0px" y="0px"
	 viewBox="-14 61.2 257.5 166.8" style="enable-background:new -14 61.2 257.5 166.8;" xml:space="preserve">
<style type="text/css">
	.st0{fill:none;stroke:#4EC2BF;stroke-width:3;stroke-miterlimit:10;}
	.st1{fill:none;stroke:#F69679;stroke-width:3;stroke-miterlimit:10;}
	
		.st2{fill:none;stroke:#5AC5CC;stroke-width:2;stroke-linecap:round;stroke-linejoin:round;stroke-miterlimit:10;stroke-dasharray:0,5.2822;}
	.st3{clip-path:url(#SVGID_2_);}
	.st4{fill:none;stroke:#6A817C;stroke-width:3;stroke-miterlimit:10;}
	.st5{fill:#FFFFFF;}
	.st6{fill:none;stroke:#F68D70;stroke-width:3;stroke-miterlimit:10;}
	.st7{fill:none;stroke:#F68C6F;stroke-width:3;stroke-miterlimit:10;}
	.st8{fill:none;stroke:#211F1F;stroke-width:3;stroke-miterlimit:10;}
</style>
<g>
	<path class="st0" d="M100.2,83.5c0,13.7-17.9,37.1-17.9,37.1s-18-23.4-18-37.1c0-9.9,8-17.9,17.9-17.9
		C92.2,65.6,100.2,73.6,100.2,83.5z"/>
	<circle class="st1" cx="82.2" cy="83.5" r="8.1"/>
</g>
<g>
	<path class="st0" d="M176.2,94.6c0,9.2-12.1,24.9-12.1,24.9S152,103.8,152,94.6c0-6.7,5.4-12.1,12.1-12.1
		C170.8,82.5,176.2,87.9,176.2,94.6z"/>
	<circle class="st1" cx="164.1" cy="94.6" r="5.5"/>
</g>
<g>
	<path class="st0" d="M236.1,157.8c0,9.2-12.1,24.9-12.1,24.9s-12.1-15.7-12.1-24.9c0-6.7,5.4-12.1,12.1-12.1
		C230.7,145.7,236.1,151.1,236.1,157.8z"/>
	<circle class="st1" cx="224" cy="157.8" r="5.5"/>
</g>
<g>
	<path class="st0" d="M16.1,135.4c0,9.2-12.1,24.9-12.1,24.9s-12-15.7-12-24.9c0-6.7,5.4-12.1,12.1-12.1
		C10.7,123.3,16.1,128.8,16.1,135.4z"/>
	<circle class="st1" cx="4.1" cy="135.4" r="5.5"/>
</g>
<line id="XMLID_316_" class="st2" x1="82.2" y1="130.8" x2="82.2" y2="152.6"/>
<line id="XMLID_315_" class="st2" x1="164.1" y1="127.7" x2="164.1" y2="155.9"/>
<line id="XMLID_314_" class="st2" x1="4.1" y1="169.3" x2="4.1" y2="220.3"/>
<line id="XMLID_233_" class="st2" x1="224" y1="193.5" x2="224" y2="223.9"/>
<g>
	<defs>
		<polygon id="SVGID_1_" points="210.9,133.8 29.2,133.8 29.2,220.8 201,220.8 210.9,220.8 		"/>
	</defs>
	<clipPath id="SVGID_2_">
		<use xlink:href="#SVGID_1_"  style="overflow:visible;"/>
	</clipPath>
	<g class="st3">
		<g>
			<polyline class="st4" points="49.1,149.9 66.6,151.7 50.9,159.8 			"/>
			
				<rect x="48.2" y="144.7" transform="matrix(0.9848 -0.1735 0.1735 0.9848 -26.0425 10.9151)" class="st5" width="2.4" height="19.4"/>
		</g>
		<g>
			<polyline class="st4" points="188.7,151.7 204.1,156 187.1,161.2 			"/>
			
				<rect x="186.4" y="146" transform="matrix(0.9839 0.1786 -0.1786 0.9839 30.8275 -31.0048)" class="st5" width="2.4" height="19.4"/>
		</g>
		<g>
			<path class="st6" d="M50.1,210.1c0,0,29.3-6.9,65.8-6.9c36.4,0,65.8,6.9,65.8,6.9"/>
			<path class="st7" d="M50.1,188.5c0,0,22.1-9.1,65.8-9.1s65.8,9.1,65.8,9.1"/>
			<line class="st8" x1="115.9" y1="157.3" x2="115.9" y2="137.1"/>
			<g>
				<line class="st8" x1="49.9" y1="169.7" x2="45.8" y2="149.5"/>
				<line class="st8" x1="182" y1="169.8" x2="186.1" y2="149.6"/>
				<g>
					<path class="st8" d="M40.1,223.2L34.3,180c0,0,20.2-22.7,81.6-22.7c64.5,0,81.6,22.7,81.6,22.7l-5.6,43.2"/>
					<polygon class="st5" points="56.5,221.3 42,222.9 37.1,182.8 51.5,181.1 					"/>
					<polygon class="st5" points="175.4,221.4 189.9,223.1 194.9,182.9 180.4,181.2 					"/>
				</g>
			</g>
		</g>
		<g>
			<polyline class="st4" points="119,138.6 136,143.3 119,148.6 			"/>
			<rect x="117.3" y="133.3" class="st5" width="2.4" height="19.4"/>
		</g>
	</g>
</g>
</svg>
