<?xml version="1.0" encoding="utf-8"?>
<!-- Generator: Adobe Illustrator 19.1.0, SVG Export Plug-In . SVG Version: 6.00 Build 0)  -->
<svg version="1.1" id="Layer_1" xmlns="http://www.w3.org/2000/svg" xmlns:xlink="http://www.w3.org/1999/xlink" x="0px" y="0px"
	 viewBox="0 0 278.3 176.1" style="enable-background:new 0 0 278.3 176.1;" xml:space="preserve">
<style type="text/css">
	.st0{fill:none;stroke:#F68D71;stroke-width:3;stroke-miterlimit:10;}
	.st1{fill:none;stroke:#00B48D;stroke-width:2;stroke-miterlimit:10;}
	.st2{fill:none;stroke:#F68C6F;stroke-width:2;stroke-miterlimit:10;}
	.st3{fill:none;stroke:#211F1F;stroke-width:2;stroke-miterlimit:10;}
	.st4{fill:#211F1F;stroke:#211F1F;stroke-width:2;stroke-miterlimit:10;}
	.st5{fill:none;stroke:#56C5D0;stroke-width:2;stroke-miterlimit:10;}
	.st6{fill:none;stroke:#6A817C;stroke-width:2;stroke-miterlimit:10;}
	.st7{fill:#FFFFFF;stroke:#211F1F;stroke-width:2;stroke-miterlimit:10;}
</style>
<g>
	<polyline class="st0" points="5.7,87.7 5.7,39.8 82.3,39.8 82.3,87.7 	"/>
	<rect x="109.1" y="28.1" class="st0" width="58.7" height="71.2"/>
	<polyline class="st0" points="255.4,87.7 193.5,87.7 193.5,39.8 255.4,39.8 	"/>
	<g>
		<path id="XMLID_223_" class="st1" d="M126.4,73.3"/>
		<path id="XMLID_222_" class="st2" d="M125,84.6l0-11.6l8.7-2c0.8,1.8,2.4,3,4.5,3c2.1,0,3.7-1.2,4.5-3l8.8,1.3l0,12.3"/>
		<g>
			<path id="XMLID_221_" class="st3" d="M133.3,53.9c0-2.7,2.2-4.9,4.9-4.9c2.7,0,4.9,2.2,4.9,4.9l-0.5,4.8c-0.2,2.6-2,4.5-4.5,4.5
				c-2.5,0-4.3-2.1-4.5-4.5L133.3,53.9z"/>
			<line id="XMLID_220_" class="st3" x1="143.1" y1="53.9" x2="133.3" y2="53.9"/>
			<circle id="XMLID_219_" class="st4" cx="138.2" cy="45.9" r="2.5"/>
		</g>
	</g>
	<g>
		<line id="XMLID_218_" class="st3" x1="203.2" y1="79.9" x2="274.3" y2="79.9"/>
		<path id="XMLID_217_" class="st3" d="M215.6,76.6"/>
		<path id="XMLID_216_" class="st1" d="M222.2,61.3"/>
		<path id="XMLID_215_" class="st1" d="M226.6,76.6"/>
		<circle id="XMLID_214_" class="st1" cx="219.7" cy="54.4" r="6.8"/>
		<polyline id="XMLID_213_" class="st1" points="225.7,52.5 219.9,58.3 219.9,74.6 		"/>
		<line id="XMLID_212_" class="st1" x1="213.6" y1="58" x2="222.7" y2="48.9"/>
		<polyline id="XMLID_211_" class="st5" points="245.1,65 233.9,65 239.4,59.6 252.8,73 239.4,73 226,73 230.2,68.8 		"/>
	</g>
	<g>
		<g id="XMLID_208_">
			<path id="XMLID_210_" class="st3" d="M37.2,99.3c0,12.2,2,56,2,56l4.3,0"/>
			<path id="XMLID_209_" class="st3" d="M53.7,99.3c0,12.2-2,56-2,56l-8.3,0"/>
		</g>
		<path id="XMLID_207_" class="st3" d="M34.7,111.4c-2.1,0-3.7-1.7-3.7-3.7"/>
		<path id="XMLID_206_" class="st3" d="M56.2,111.4c2.1,0,3.7-1.7,3.7-3.7"/>
		<g id="XMLID_203_">
			<path id="XMLID_205_" class="st5" d="M34.5,105l-3.5,0l-0.9-31.9c0-2.6,1.9-4.6,4.5-5.3l6.7-1.9l3.4,2.6"/>
			<path id="XMLID_204_" class="st5" d="M56.4,105l3.5,0l0.9-31.9c0-2.6-1.8-4.5-4.5-5.3l-6.7-1.9l-3.4,2.6"/>
		</g>
		<line id="XMLID_200_" class="st3" x1="40" y1="100.3" x2="50.9" y2="100.3"/>
		<g id="XMLID_197_">
			<line id="XMLID_199_" class="st3" x1="37.9" y1="159.1" x2="44.6" y2="159.1"/>
			<line id="XMLID_198_" class="st3" x1="46.2" y1="159.1" x2="53" y2="159.1"/>
		</g>
		<g id="XMLID_194_">
			<path id="XMLID_196_" class="st5" d="M36,73.9c0,0,0,0.5,0,0.8c0,4.9,1.1,20.1,1.1,22.6"/>
			<path id="XMLID_195_" class="st5" d="M54.9,73.9c0,0,0,0.5,0,0.8c0,4.9-1.1,20.1-1.1,22.6"/>
		</g>
		<path id="XMLID_193_" class="st6" d="M50,53.9c0.3-3.2-2.1-5.1-4.6-5.1c-2.6,0-4.6,2.4-4.6,4.9c0,0,3.1,0.3,5.7-2"/>
		<path id="XMLID_192_" class="st7" d="M50,55.2l-0.3,3.4c-0.2,2.5-1.9,4.2-4.2,4.2c-2.3,0-4-1.9-4.2-4.2L41,55.9"/>
		<line id="XMLID_121_" class="st3" x1="45.4" y1="105.3" x2="45.4" y2="155.3"/>
	</g>
</g>
</svg>
