<?xml version="1.0" encoding="utf-8"?>
<!-- Generator: Adobe Illustrator 19.1.0, SVG Export Plug-In . SVG Version: 6.00 Build 0)  -->
<svg version="1.1" id="Layer_1" xmlns="http://www.w3.org/2000/svg" xmlns:xlink="http://www.w3.org/1999/xlink" x="0px" y="0px"
	 viewBox="0 0 278.3 176.1" style="enable-background:new 0 0 278.3 176.1;" xml:space="preserve">
<style type="text/css">
	.st0{fill:none;stroke:#F68D71;stroke-width:3;stroke-miterlimit:10;}
	.st1{clip-path:url(#SVGID_2_);fill:none;stroke:#211F1F;stroke-width:3;stroke-miterlimit:10;}
	.st2{clip-path:url(#SVGID_2_);}
	.st3{clip-path:url(#SVGID_4_);}
	.st4{fill:none;stroke:#211F1F;stroke-width:100;stroke-miterlimit:10;}
	.st5{fill:none;stroke:#211F1F;stroke-width:100;stroke-miterlimit:10;stroke-dasharray:2.0295,4.0591;}
	.st6{clip-path:url(#SVGID_6_);}
	.st7{fill:none;stroke:#211F1F;stroke-width:2;stroke-miterlimit:10;}
	.st8{fill:none;stroke:#00B188;stroke-width:2;stroke-miterlimit:10;}
</style>
<g>
	<polyline class="st0" points="170.5,0 170.5,72.4 119.6,72.4 119.6,0 	"/>
	<line class="st0" x1="145.1" y1="72.4" x2="145.1" y2="84.6"/>
	<g>
		<defs>
			<rect id="SVGID_1_" x="7.4" y="90.4" width="272.1" height="85.7"/>
		</defs>
		<clipPath id="SVGID_2_">
			<use xlink:href="#SVGID_1_"  style="overflow:visible;"/>
		</clipPath>
		<polyline class="st1" points="277.6,178.4 204.2,96.3 85.9,96.3 12.6,178.4 		"/>
		<g class="st2">
			<defs>
				<polygon id="SVGID_3_" points="88.5,183.3 85.2,183.3 113.2,100 116.3,100.7 				"/>
			</defs>
			<clipPath id="SVGID_4_">
				<use xlink:href="#SVGID_3_"  style="overflow:visible;"/>
			</clipPath>
			<g class="st3">
				<g>
					<line class="st4" x1="122.9" y1="55" x2="122.9" y2="56"/>
					<line class="st5" x1="122.9" y1="60.1" x2="121.6" y2="198.1"/>
					<line class="st4" x1="121.6" y1="200.1" x2="121.6" y2="201.1"/>
				</g>
			</g>
		</g>
		<g class="st2">
			<defs>
				<polygon id="SVGID_5_" points="197,183.3 200.4,183.3 172.4,100 169.2,100.7 				"/>
			</defs>
			<clipPath id="SVGID_6_">
				<use xlink:href="#SVGID_5_"  style="overflow:visible;"/>
			</clipPath>
			<g class="st6">
				<g>
					<line class="st4" x1="162.6" y1="55" x2="162.6" y2="56"/>
					<line class="st5" x1="162.7" y1="60.1" x2="163.9" y2="198.1"/>
					<line class="st4" x1="163.9" y1="200.1" x2="164" y2="201.1"/>
				</g>
			</g>
		</g>
	</g>
</g>
<g>
	<rect x="1" y="120.2" class="st7" width="23.4" height="8"/>
	<line class="st7" x1="3.8" y1="128.9" x2="3.8" y2="134.8"/>
	<polyline class="st8" points="26.8,121 29.6,121 29.6,127.3 26.8,127.3 	"/>
</g>
<g>
	
		<rect x="216.4" y="11.5" transform="matrix(-0.9682 0.2502 -0.2502 -0.9682 452.7019 -26.6658)" class="st7" width="23.4" height="8"/>
	<line class="st7" x1="236.3" y1="17.2" x2="236.3" y2="23.1"/>
	<polyline class="st8" points="213.6,16 210.9,16.7 212.4,22.7 215.1,22 	"/>
</g>
<g>
	<g>
		<rect x="82.7" y="71.2" class="st7" width="9.1" height="8"/>
		<line class="st7" x1="87.2" y1="79.9" x2="87.2" y2="85.8"/>
	</g>
</g>
</svg>
