<?xml version="1.0" encoding="utf-8"?>
<!-- Generator: Adobe Illustrator 19.1.0, SVG Export Plug-In . SVG Version: 6.00 Build 0)  -->
<svg version="1.1" id="Layer_1" xmlns="http://www.w3.org/2000/svg" xmlns:xlink="http://www.w3.org/1999/xlink" x="0px" y="0px"
	 viewBox="312 61.5 911.3 167.5" style="enable-background:new 312 61.5 911.3 167.5;" xml:space="preserve">
<style type="text/css">
	.st0{fill:none;stroke:#56C5D0;stroke-width:3;stroke-miterlimit:10;}
	.st1{fill:#FFFFFF;}
	.st2{fill:none;stroke:#00B48D;stroke-width:3;stroke-miterlimit:10;}
	.st3{fill:#FFFFFF;stroke:#17181B;stroke-width:3;stroke-miterlimit:10;}
	.st4{fill:none;stroke:#17181B;stroke-width:3;stroke-miterlimit:10;}
	.st5{fill:none;stroke:#00B188;stroke-width:3;stroke-miterlimit:10;}
	.st6{fill:none;stroke:#57C6CF;stroke-width:3;stroke-miterlimit:10;}
	.st7{fill:none;stroke:#221F1F;stroke-width:3;stroke-miterlimit:10;}
	.st8{clip-path:url(#SVGID_2_);fill:#FFFFFF;stroke:#F68D71;stroke-width:3;stroke-miterlimit:10;}
	.st9{fill:none;stroke:#F68D71;stroke-width:3;stroke-miterlimit:10;}
	.st10{clip-path:url(#SVGID_4_);fill:#FFFFFF;stroke:#221F1F;stroke-width:3;stroke-miterlimit:10;}
	.st11{fill:none;stroke:#000000;stroke-width:3;stroke-linecap:square;stroke-miterlimit:10;}
	.st12{fill:none;stroke:#6A817C;stroke-width:3;stroke-linecap:square;stroke-miterlimit:10;}
	.st13{fill:none;stroke:#231F1F;stroke-width:3;stroke-miterlimit:10;}
	.st14{fill:none;stroke:#F69679;stroke-width:3;stroke-linecap:square;stroke-miterlimit:10;}
	.st15{fill:none;stroke:#56C5D0;stroke-width:3;stroke-linecap:square;stroke-miterlimit:10;}
	.st16{fill:none;stroke:#221F1F;stroke-width:3;stroke-linecap:square;stroke-miterlimit:10;}
	.st17{fill:none;stroke:#211F1F;stroke-width:3;stroke-miterlimit:10;}
	.st18{fill:none;stroke:#F4967C;stroke-width:3;stroke-miterlimit:10;}
	.st19{fill:none;stroke:#F69679;stroke-width:2;stroke-miterlimit:10;}
	.st20{fill:none;stroke:#221F1F;stroke-width:2;stroke-miterlimit:10;}
	.st21{fill:#F4F5F5;}
	.st22{fill:#6A817C;}
	
		.st23{fill:none;stroke:#6A817C;stroke-width:2;stroke-linecap:round;stroke-linejoin:round;stroke-miterlimit:10;stroke-dasharray:0,6.8804;}
	.st24{fill:none;stroke:#000000;stroke-width:2;stroke-miterlimit:10;}
	.st25{fill:none;stroke:#6A817C;stroke-linecap:round;stroke-linejoin:round;stroke-miterlimit:10;stroke-dasharray:0,3;}
	.st26{fill:none;stroke:#000000;stroke-miterlimit:10;}
	
		.st27{fill:none;stroke:#50C3CB;stroke-width:3;stroke-linecap:round;stroke-linejoin:round;stroke-miterlimit:10;stroke-dasharray:0,7;}
	.st28{fill:none;stroke:#00B38D;stroke-width:3;stroke-miterlimit:10;}
	.st29{fill:#00B38D;}
	.st30{clip-path:url(#SVGID_6_);}
	.st31{fill:none;stroke:#6A817C;stroke-width:3;stroke-miterlimit:10;}
	.st32{fill:none;stroke:#F68D70;stroke-width:3;stroke-miterlimit:10;}
</style>
<g>
	<polyline id="XMLID_85_" class="st0" points="625.8,184.2 620.6,175.6 600.6,185 584.1,174.7 	"/>
	<polygon id="XMLID_41_" class="st1" points="592.7,170 591.6,190.6 586.2,189.5 586.2,169.2 	"/>
	<path id="XMLID_40_" class="st0" d="M553.5,160.5c0-12.1,10.9-14.5,10.9-14.5s19.8,14,21.2,30.2l-1.4,41.9"/>
	<g id="XMLID_38_">
		<path id="XMLID_39_" class="st2" d="M604.9,120.1l-12.2-4.2l0.7-2c1-2.7-0.4-5.8-3.1-6.9c-2.6-1.1-5.4-2.2-6.1-2.4
			c-6.6-1.5-13.2,2.6-14.7,9.2"/>
	</g>
	<line id="XMLID_37_" class="st0" x1="564.7" y1="161.5" x2="564.6" y2="218"/>
	<g id="XMLID_35_">
		<path id="XMLID_36_" class="st3" d="M573.4,146.9l4.1-7.8c6.3,3,11.2-1.2,12.6-7.1c0.5-2,1.2-5.3,1.8-7.8"/>
	</g>
	<line id="XMLID_34_" class="st4" x1="634.4" y1="155.4" x2="627.6" y2="172"/>
	<path class="st0" d="M559.5,140h-14.8c-3.4,0-6.2,2.8-6.2,6.2v7.3c0,3.4,2.8,6.2,6.2,6.2l0,0"/>
</g>
<g>
	<g id="_x3C_Group_x3E__2_">
		<g>
			<path id="XMLID_33_" class="st5" d="M1084.7,147.7"/>
			<path id="XMLID_32_" class="st5" d="M1089.2,158.5"/>
			<g id="XMLID_30_">
				<line id="XMLID_31_" class="st6" x1="1095" y1="157.2" x2="1101.4" y2="220.7"/>
			</g>
			<path id="XMLID_29_" class="st6" d="M1066.9,159.9c0,5.9,1.3,13.4,2.6,18.7c2.3,9.5,5.5,23.3,5.5,23.3l-4.7,18"/>
			<path id="XMLID_28_" class="st7" d="M1065.7,156.5c0-7.9,4-10.9,13.5-10.7c0.7,0,18.6,0.9,30,1.5c6.1,0.3,12.2-1,17.6-3.8
				l23.6-13.2c1.9-1.1,3.1-3.1,3.1-5.3v-4.7"/>
			<g id="XMLID_25_">
				<g>
					<defs>
						<polygon id="SVGID_1_" points="1095,115 1078,115 1067.4,128 1061.2,128 1061.2,95.7 1095,95.7 						"/>
					</defs>
					<clipPath id="SVGID_2_">
						<use xlink:href="#SVGID_1_"  style="overflow:visible;"/>
					</clipPath>
					<circle id="XMLID_27_" class="st8" cx="1078" cy="114.5" r="11.2"/>
				</g>
			</g>
			<line id="XMLID_24_" class="st9" x1="1079.9" y1="113.1" x2="1088.6" y2="113.1"/>
			<path id="XMLID_23_" class="st9" d="M1070.2,106.5l-1.7-1.3c-5.3-4.2-13.2-0.4-13.2,6.4v8.8c0,4-1.5,9.2-7.3,10.7
				c0,0,1.4,7.9,10.5,7.9c6,0,9-4.5,9-7"/>
			<g id="XMLID_20_">
				<g>
					<defs>
						<path id="SVGID_3_" d="M1072.2,138.9l5-21.1c6.5,0,11.4,0,15,0l-2,28.5L1072.2,138.9z"/>
					</defs>
					<clipPath id="SVGID_4_">
						<use xlink:href="#SVGID_3_"  style="overflow:visible;"/>
					</clipPath>
					<path id="XMLID_22_" class="st10" d="M1075.7,139.7l2.6-6.5c6.8,1.5,10.7-3.7,10.7-9.8c0-2.1,0-10,0-12.5"/>
				</g>
			</g>
		</g>
	</g>
	<line class="st6" x1="1145.7" y1="126.1" x2="1145.7" y2="109.5"/>
	<path class="st3" d="M1103.5,156.5l14.8,14.5c4.2,4.1,4.4,10.8,0.5,15.2l-13.1,14.8"/>
</g>
<g>
	<g>
		<g>
			<path class="st1" d="M1015.4,219.1V186V219.1z"/>
			<line class="st11" x1="1015.4" y1="186" x2="1015.4" y2="219.1"/>
			<path class="st1" d="M1003.1,219.1V186V219.1z"/>
			<line class="st11" x1="1003.1" y1="186" x2="1003.1" y2="219.1"/>
			<path class="st1" d="M990.9,219.1V186V219.1z"/>
			<line class="st11" x1="990.9" y1="186" x2="990.9" y2="219.1"/>
			<path class="st1" d="M978.6,219.1V186V219.1z"/>
			<line class="st11" x1="978.6" y1="186" x2="978.6" y2="219.1"/>
			<path class="st1" d="M966.3,219.1V186V219.1z"/>
			<line class="st11" x1="966.3" y1="186" x2="966.3" y2="219.1"/>
			<path class="st1" d="M954,219.1V186V219.1z"/>
			<line class="st11" x1="954" y1="186" x2="954" y2="219.1"/>
			<polygon class="st12" points="985.2,160.1 1016.9,173.2 1016.9,175.7 985.2,175.7 953.6,175.7 953.6,173.2 			"/>
		</g>
		<line class="st11" x1="944.7" y1="192.8" x2="892.3" y2="192.8"/>
		<line class="st11" x1="1027.5" y1="193.3" x2="1053.6" y2="193.3"/>
	</g>
	<g>
		<line class="st7" x1="936.4" y1="210.3" x2="936.4" y2="202.6"/>
		<line class="st7" x1="904.9" y1="210.3" x2="904.9" y2="202.6"/>
		<line class="st7" x1="920.7" y1="210.3" x2="920.7" y2="202.6"/>
	</g>
	<g>
		<line class="st7" x1="1028.6" y1="210.3" x2="1028.6" y2="202.6"/>
		<line class="st7" x1="1044.3" y1="210.3" x2="1044.3" y2="202.6"/>
	</g>
</g>
<g>
	<polyline class="st2" points="1212.4,222.4 1212.4,192.8 1180.7,192.8 1180.7,222.4 	"/>
	<g>
		<polyline class="st13" points="1166,222.4 1166,162.3 1138.4,162.3 		"/>
		<line class="st0" x1="1138.6" y1="182.3" x2="1143.7" y2="182.3"/>
		<line class="st0" x1="1138.4" y1="173" x2="1143.4" y2="173"/>
	</g>
</g>
<g>
	<path id="XMLID_19_" class="st4" d="M359.5,184"/>
	<path id="XMLID_18_" class="st4" d="M356.3,183.5"/>
	<polyline class="st14" points="338.7,196.3 323.3,196.3 323.3,220.3 	"/>
	<polyline class="st12" points="399.2,220.3 399.2,157.3 414.6,141.8 430.1,157.3 430.1,220.3 	"/>
	<g>
		<g>
			<line class="st15" x1="406.6" y1="193.5" x2="406.6" y2="190.9"/>
			<line class="st15" x1="422.6" y1="193.5" x2="422.6" y2="190.9"/>
			<line class="st15" x1="414.6" y1="193.5" x2="414.6" y2="190.9"/>
		</g>
	</g>
	<g>
		<g>
			<line class="st15" x1="406.6" y1="171" x2="406.6" y2="168.5"/>
			<line class="st15" x1="422.6" y1="171" x2="422.6" y2="168.5"/>
			<line class="st15" x1="414.6" y1="171" x2="414.6" y2="168.5"/>
		</g>
		<g>
			<line class="st15" x1="406.6" y1="182.8" x2="406.6" y2="180.3"/>
			<line class="st15" x1="422.6" y1="182.8" x2="422.6" y2="180.3"/>
			<line class="st15" x1="414.6" y1="182.8" x2="414.6" y2="180.3"/>
		</g>
	</g>
	<path class="st12" d="M344,220.3"/>
	<line class="st14" x1="406.6" y1="220.3" x2="406.6" y2="213.2"/>
	<path class="st12" d="M399.2,220.3"/>
	<g>
		<path class="st12" d="M373.9,220.3"/>
		<path id="XMLID_17_" class="st4" d="M360.7,184"/>
		<polyline class="st12" points="376.2,220.3 376.2,183.1 360.7,167.7 345.3,183.1 345.3,220.3 		"/>
		<path id="XMLID_16_" class="st4" d="M357.5,183.5"/>
		<path class="st12" d="M345.2,220.3"/>
		<g>
			<line class="st16" x1="368.7" y1="190.7" x2="368.7" y2="188.1"/>
			<line class="st16" x1="352.7" y1="190.7" x2="352.7" y2="188.1"/>
			<line class="st16" x1="360.7" y1="190.7" x2="360.7" y2="188.1"/>
		</g>
		<g>
			<line class="st16" x1="368.7" y1="202.5" x2="368.7" y2="200"/>
			<line class="st16" x1="352.7" y1="202.5" x2="352.7" y2="200"/>
			<line class="st16" x1="360.7" y1="202.5" x2="360.7" y2="200"/>
		</g>
		<line class="st14" x1="368.7" y1="220.3" x2="368.7" y2="213.2"/>
		<path class="st12" d="M345.2,220.3"/>
	</g>
	<path class="st12" d="M430.1,220.3"/>
</g>
<g>
	<line id="XMLID_15_" class="st4" x1="525.2" y1="221" x2="525.2" y2="207.1"/>
	<circle id="XMLID_14_" class="st2" cx="525.2" cy="194.7" r="12.4"/>
</g>
<g>
	<g>
		<circle id="XMLID_13_" class="st17" cx="455.8" cy="217" r="3.1"/>
		<circle id="XMLID_12_" class="st17" cx="480.3" cy="217" r="3.1"/>
		<polyline id="XMLID_11_" class="st7" points="480.3,205.6 480.3,195.7 449.2,195.7 449.2,213.9 		"/>
		<polyline id="XMLID_10_" class="st7" points="486.4,213.9 491.1,213.9 491.1,204.8 472.6,204.8 		"/>
		<line id="XMLID_9_" class="st18" x1="472.6" y1="213.9" x2="463" y2="213.9"/>
	</g>
	<path id="XMLID_8_" class="st17" d="M479.8,212.6"/>
</g>
<g>
	<line id="XMLID_7_" class="st4" x1="866.3" y1="221" x2="866.3" y2="207.1"/>
	<circle id="XMLID_6_" class="st2" cx="866.3" cy="194.7" r="12.4"/>
</g>
<g>
	<circle id="XMLID_5_" class="st19" cx="984.9" cy="114.4" r="2.2"/>
	<g>
		<path class="st20" d="M978.2,123.3c-2.6-2-4.3-5.2-4.3-8.8c0-6.1,4.9-11,11-11s11,4.9,11,11c0,3.6-1.7,6.8-4.3,8.8"/>
		<path class="st20" d="M994.2,126.7c3.7-2.8,6.1-7.3,6.1-12.3c0-8.5-6.9-15.4-15.4-15.4s-15.4,6.9-15.4,15.4c0,5,2.4,9.4,6.1,12.3"
			/>
		<path class="st20" d="M981,119.6c-1.6-1.2-2.6-3.1-2.6-5.2c0-3.6,2.9-6.5,6.5-6.5s6.5,2.9,6.5,6.5c0,2.1-1,4-2.6,5.2"/>
		<path class="st20" d="M991.6,123.3c2.6-2,4.3-5.2,4.3-8.8c0-6.1-4.9-11-11-11s-11,4.9-11,11c0,3.6,1.7,6.8,4.3,8.8"/>
		<path class="st20" d="M988.8,119.6c1.6-1.2,2.6-3.1,2.6-5.2c0-3.6-2.9-6.5-6.5-6.5s-6.5,2.9-6.5,6.5c0,2.1,1,4,2.6,5.2"/>
	</g>
</g>
<g>
	<g>
		<g>
			<g>
				
					<rect x="618.6" y="76.3" transform="matrix(0.1113 -0.9938 0.9938 0.1113 476.1738 714.3389)" class="st21" width="37.8" height="29.3"/>
				<g>
					<path class="st22" d="M626,71.6l27.1,3l-4,35.6l-27.1-3L626,71.6 M624.2,69.4l-4.4,39.6l31.1,3.5l4.4-39.6L624.2,69.4
						L624.2,69.4z"/>
				</g>
			</g>
		</g>
		<line class="st23" x1="625.4" y1="94.7" x2="648.6" y2="97.3"/>
		<g>
			<line class="st24" x1="641.6" y1="102.6" x2="641.2" y2="106"/>
			<line class="st24" x1="638.9" y1="102.3" x2="638.5" y2="105.7"/>
			<line class="st24" x1="636.5" y1="102" x2="636.2" y2="105.4"/>
			<line class="st24" x1="633.7" y1="101.7" x2="633.4" y2="105.1"/>
			<line class="st24" x1="631.1" y1="101.4" x2="630.7" y2="104.8"/>
			<line class="st24" x1="627.8" y1="101" x2="627.4" y2="104.4"/>
			<line class="st24" x1="624.7" y1="100.7" x2="624.4" y2="104.1"/>
		</g>
		<line class="st24" x1="627.6" y1="75.2" x2="650.8" y2="77.8"/>
		<line class="st24" x1="627.1" y1="79.9" x2="641.6" y2="81.5"/>
	</g>
	<g>
		<g>
			<g>
				<rect x="621.9" y="70.6" class="st1" width="30.3" height="39.1"/>
				<g>
					<path class="st22" d="M622.9,71.6h28.3v37.1h-28.3V71.6 M620.9,69.6v41.1h32.3V69.6H620.9L620.9,69.6z"/>
				</g>
			</g>
		</g>
		<line class="st25" x1="625.1" y1="95.3" x2="649.2" y2="95.3"/>
		<g>
			<line class="st24" x1="642.6" y1="101.6" x2="642.6" y2="105.1"/>
			<line class="st26" x1="639.7" y1="101.6" x2="639.7" y2="105.1"/>
			<line class="st26" x1="637.3" y1="101.6" x2="637.3" y2="105.1"/>
			<line class="st24" x1="634.4" y1="101.6" x2="634.4" y2="105.1"/>
			<line class="st24" x1="631.7" y1="101.6" x2="631.7" y2="105.1"/>
			<line class="st26" x1="628.2" y1="101.6" x2="628.2" y2="105.1"/>
			<line class="st24" x1="625.1" y1="101.6" x2="625.1" y2="105.1"/>
		</g>
		<line class="st24" x1="625.1" y1="75.1" x2="649.2" y2="75.1"/>
		<line class="st24" x1="625.1" y1="80" x2="640.1" y2="80"/>
	</g>
</g>
<line class="st27" x1="467.8" y1="181.4" x2="467.8" y2="147.7"/>
<g>
	<path class="st20" d="M478.3,117.6c0,8.1-10.6,21.8-10.6,21.8s-10.6-13.7-10.6-21.8c0-5.8,4.7-10.6,10.6-10.6
		C473.6,107,478.3,111.7,478.3,117.6z"/>
	<circle class="st19" cx="467.8" cy="117.6" r="4.8"/>
</g>
<line class="st27" x1="985.2" y1="150.4" x2="985.2" y2="123"/>
<g id="XMLID_3_">
	<g>
		<line class="st28" x1="634.4" y1="121.2" x2="634.4" y2="136.3"/>
		<g>
			<polygon class="st29" points="630.9,135.2 634.4,141.5 638,135.2 			"/>
		</g>
	</g>
</g>
<g>
	<g>
		<defs>
			<polygon id="SVGID_5_" points="852.2,123.3 648.6,123.3 648.6,220.7 841.1,220.7 852.2,220.7 			"/>
		</defs>
		<clipPath id="SVGID_6_">
			<use xlink:href="#SVGID_5_"  style="overflow:visible;"/>
		</clipPath>
		<g class="st30">
			<g>
				<polyline class="st31" points="670.9,141.4 690.5,143.3 672.8,152.4 				"/>
				
					<rect x="669.9" y="135.5" transform="matrix(-0.9848 0.1735 -0.1735 -0.9848 1357.6747 173.9976)" class="st1" width="2.7" height="21.7"/>
			</g>
			<g>
				<polyline class="st31" points="827.3,143.3 844.6,148.1 825.6,154 				"/>
				
					<rect x="824.8" y="137" transform="matrix(-0.9839 -0.1786 0.1786 -0.9839 1612.5764 440.8896)" class="st1" width="2.7" height="21.7"/>
			</g>
			<g>
				<path class="st9" d="M672,208.8c0,0,32.9-7.7,73.7-7.7s73.7,7.7,73.7,7.7"/>
				<path class="st32" d="M672,184.5c0,0,24.7-10.2,73.7-10.2s73.7,10.2,73.7,10.2"/>
				<line class="st17" x1="745.7" y1="149.6" x2="745.7" y2="127"/>
				<g>
					<line class="st17" x1="671.8" y1="163.5" x2="667.2" y2="140.9"/>
					<line class="st17" x1="819.8" y1="163.6" x2="824.4" y2="141"/>
					<g>
						<path class="st17" d="M660.8,223.5l-6.5-48.4c0,0,22.6-25.5,91.4-25.5c72.2,0,91.4,25.5,91.4,25.5l-6.2,48.4"/>
						<polygon class="st1" points="679.1,221.3 663,223.2 657.4,178.1 673.6,176.2 						"/>
						<polygon class="st1" points="812.5,221.4 828.6,223.3 834.2,178.3 818,176.4 						"/>
					</g>
				</g>
			</g>
			<g>
				<polyline class="st31" points="749.2,128.6 768.2,133.9 749.2,139.8 				"/>
				<rect x="747.3" y="122.8" class="st1" width="2.7" height="21.7"/>
			</g>
		</g>
	</g>
</g>
</svg>
