<?xml version="1.0" encoding="utf-8"?>
<!-- Generator: Adobe Illustrator 19.1.0, SVG Export Plug-In . SVG Version: 6.00 Build 0)  -->
<svg version="1.1" id="Layer_1" xmlns="http://www.w3.org/2000/svg" xmlns:xlink="http://www.w3.org/1999/xlink" x="0px" y="0px"
	 viewBox="312 61.5 911.3 167.5" style="enable-background:new 312 61.5 911.3 167.5;" xml:space="preserve">
<style type="text/css">
	.st0{fill:none;stroke:#56C5D0;stroke-width:3;stroke-miterlimit:10;}
	.st1{fill:#FFFFFF;}
	.st2{fill:none;stroke:#00B48D;stroke-width:3;stroke-miterlimit:10;}
	.st3{fill:#FFFFFF;stroke:#17181B;stroke-width:3;stroke-miterlimit:10;}
	.st4{fill:none;stroke:#17181B;stroke-width:3;stroke-miterlimit:10;}
	.st5{fill:#F4F5F5;}
	.st6{fill:#6A817C;}
	
		.st7{fill:none;stroke:#6A817C;stroke-width:2;stroke-linecap:round;stroke-linejoin:round;stroke-miterlimit:10;stroke-dasharray:0,6.8804;}
	.st8{fill:none;stroke:#000000;stroke-width:2;stroke-miterlimit:10;}
	.st9{fill:none;stroke:#6A817C;stroke-linecap:round;stroke-linejoin:round;stroke-miterlimit:10;stroke-dasharray:0,3;}
	.st10{fill:none;stroke:#000000;stroke-miterlimit:10;}
	.st11{fill:none;stroke:#00B38D;stroke-width:3;stroke-miterlimit:10;}
	.st12{fill:#00B38D;}
</style>
<g>
	<polyline id="XMLID_85_" class="st0" points="625.8,184.2 620.6,175.6 600.6,185 585.6,176.2 	"/>
	<polygon id="XMLID_41_" class="st1" points="592.7,170 591.6,190.6 586.2,189.5 586.2,169.2 	"/>
	<path id="XMLID_40_" class="st0" d="M553.5,160.5c0-12.1,10.9-14.5,10.9-14.5s19.8,14,21.2,30.2l-1.4,41.9"/>
	<g id="XMLID_38_">
		<path id="XMLID_39_" class="st2" d="M604.9,120.1l-12.2-4.2l0.7-2c1-2.7-0.4-5.8-3.1-6.9c-2.6-1.1-5.4-2.2-6.1-2.4
			c-6.6-1.5-13.2,2.6-14.7,9.2"/>
	</g>
	<line id="XMLID_37_" class="st0" x1="564.7" y1="161.5" x2="564.6" y2="218"/>
	<g id="XMLID_35_">
		<path id="XMLID_36_" class="st3" d="M573.4,146.9l4.1-7.8c6.3,3,11.2-1.2,12.6-7.1c0.5-2,1.2-5.3,1.8-7.8"/>
	</g>
	<line id="XMLID_34_" class="st4" x1="634.4" y1="155.4" x2="627.6" y2="172"/>
	<path class="st0" d="M559.5,140h-14.8c-3.4,0-6.2,2.8-6.2,6.2v7.3c0,3.4,2.8,6.2,6.2,6.2l0,0"/>
</g>
<g>
	<g>
		<g>
			<g>
				<g>
					
						<rect x="618.6" y="76.3" transform="matrix(0.1113 -0.9938 0.9938 0.1113 476.1738 714.3389)" class="st5" width="37.8" height="29.3"/>
					<g>
						<path class="st6" d="M626,71.6l27.1,3l-4,35.6l-27.1-3L626,71.6 M624.2,69.4l-4.4,39.6l31.1,3.5l4.4-39.6L624.2,69.4
							L624.2,69.4z"/>
					</g>
				</g>
			</g>
			<line class="st7" x1="625.4" y1="94.7" x2="648.6" y2="97.3"/>
			<g>
				<line class="st8" x1="641.6" y1="102.6" x2="641.2" y2="106"/>
				<line class="st8" x1="638.9" y1="102.3" x2="638.5" y2="105.7"/>
				<line class="st8" x1="636.5" y1="102" x2="636.2" y2="105.4"/>
				<line class="st8" x1="633.7" y1="101.7" x2="633.4" y2="105.1"/>
				<line class="st8" x1="631.1" y1="101.4" x2="630.7" y2="104.8"/>
				<line class="st8" x1="627.8" y1="101" x2="627.4" y2="104.4"/>
				<line class="st8" x1="624.7" y1="100.7" x2="624.4" y2="104.1"/>
			</g>
			<line class="st8" x1="627.6" y1="75.2" x2="650.8" y2="77.8"/>
			<line class="st8" x1="627.1" y1="79.9" x2="641.6" y2="81.5"/>
		</g>
		<g>
			<g>
				<g>
					<rect x="621.9" y="70.6" class="st1" width="30.3" height="39.1"/>
					<g>
						<path class="st6" d="M622.9,71.6h28.3v37.1h-28.3V71.6 M620.9,69.6v41.1h32.3V69.6H620.9L620.9,69.6z"/>
					</g>
				</g>
			</g>
			<line class="st9" x1="625.1" y1="95.3" x2="649.2" y2="95.3"/>
			<g>
				<line class="st8" x1="642.6" y1="101.6" x2="642.6" y2="105.1"/>
				<line class="st10" x1="639.7" y1="101.6" x2="639.7" y2="105.1"/>
				<line class="st10" x1="637.3" y1="101.6" x2="637.3" y2="105.1"/>
				<line class="st8" x1="634.4" y1="101.6" x2="634.4" y2="105.1"/>
				<line class="st8" x1="631.7" y1="101.6" x2="631.7" y2="105.1"/>
				<line class="st10" x1="628.2" y1="101.6" x2="628.2" y2="105.1"/>
				<line class="st8" x1="625.1" y1="101.6" x2="625.1" y2="105.1"/>
			</g>
			<line class="st8" x1="625.1" y1="75.1" x2="649.2" y2="75.1"/>
			<line class="st8" x1="625.1" y1="80" x2="640.1" y2="80"/>
		</g>
	</g>
	<g id="XMLID_3_">
		<g>
			<line class="st11" x1="634.4" y1="121.2" x2="634.4" y2="136.3"/>
			<g>
				<polygon class="st12" points="630.9,135.2 634.4,141.5 638,135.2 				"/>
			</g>
		</g>
	</g>
</g>
</svg>
