<?xml version="1.0" encoding="utf-8"?>
<!-- Generator: Adobe Illustrator 19.1.0, SVG Export Plug-In . SVG Version: 6.00 Build 0)  -->
<svg version="1.1" id="Layer_1" xmlns="http://www.w3.org/2000/svg" xmlns:xlink="http://www.w3.org/1999/xlink" x="0px" y="0px"
	 viewBox="-25 92.4 236.3 105.6" style="enable-background:new -25 92.4 236.3 105.6;" xml:space="preserve">
<style type="text/css">
	.st0{fill:none;stroke:#FFFFFF;stroke-width:2;stroke-miterlimit:10;}
	.st1{fill:none;stroke:#00B188;stroke-width:2;stroke-miterlimit:10;}
	.st2{fill:#6A817C;}
	
		.st3{fill:none;stroke:#6A817C;stroke-width:3;stroke-linecap:round;stroke-linejoin:round;stroke-miterlimit:10;stroke-dasharray:0,6.8804;}
	.st4{fill:none;stroke:#FFFFFF;stroke-width:3;stroke-miterlimit:10;}
	
		.st5{fill:none;stroke:#FFFFFF;stroke-width:2;stroke-linecap:round;stroke-linejoin:round;stroke-miterlimit:10;stroke-dasharray:0,7;}
</style>
<g>
	<g id="XMLID_241_">
		<rect id="XMLID_244_" x="182.7" y="152.9" class="st0" width="26.8" height="43.4"/>
		<line id="XMLID_243_" class="st0" x1="210.5" y1="186" x2="181.7" y2="186"/>
		<circle id="XMLID_242_" class="st0" cx="196.1" cy="191.3" r="1.8"/>
	</g>
	<line id="XMLID_238_" class="st1" x1="203" y1="159" x2="189.3" y2="180.5"/>
</g>
<g>
	<g id="XMLID_2_">
		<rect id="XMLID_5_" x="142.4" y="152.9" class="st0" width="26.8" height="43.4"/>
		<line id="XMLID_4_" class="st0" x1="170.1" y1="186" x2="141.4" y2="186"/>
		<circle id="XMLID_3_" class="st0" cx="155.7" cy="191.3" r="1.8"/>
	</g>
	<line id="XMLID_1_" class="st1" x1="162.6" y1="159" x2="149" y2="180.5"/>
</g>
<g>
	<g id="XMLID_7_">
		<rect id="XMLID_10_" x="86.5" y="152.9" class="st0" width="26.8" height="43.4"/>
		<line id="XMLID_9_" class="st0" x1="114.3" y1="186" x2="85.5" y2="186"/>
		<circle id="XMLID_8_" class="st0" cx="99.9" cy="191.3" r="1.8"/>
	</g>
	<line id="XMLID_6_" class="st1" x1="106.8" y1="159" x2="93.2" y2="180.5"/>
</g>
<g>
	<g>
		<g>
			<g>
				<path class="st2" d="M30.2,96.3v64.6h-49.4V96.3H30.2 M33.2,93.3h-55.4v70.6h55.4V93.3L33.2,93.3z"/>
			</g>
		</g>
	</g>
	<line class="st3" x1="-15.1" y1="137.5" x2="26.3" y2="137.5"/>
	<g>
		<line class="st4" x1="15" y1="148.2" x2="15" y2="154.3"/>
		<line class="st4" x1="10.1" y1="148.2" x2="10.1" y2="154.3"/>
		<line class="st4" x1="5.9" y1="148.2" x2="5.9" y2="154.3"/>
		<line class="st4" x1="0.9" y1="148.2" x2="0.9" y2="154.3"/>
		<line class="st4" x1="-3.7" y1="148.2" x2="-3.7" y2="154.3"/>
		<line class="st4" x1="-9.7" y1="148.2" x2="-9.7" y2="154.3"/>
		<line class="st4" x1="-15.1" y1="148.2" x2="-15.1" y2="154.3"/>
	</g>
	<line class="st4" x1="-15.1" y1="102.9" x2="26.3" y2="102.9"/>
	<line class="st4" x1="-15.1" y1="111.1" x2="10.8" y2="111.1"/>
</g>
<polyline class="st5" points="50.7,115.5 198,115.5 198,146.8 "/>
<line class="st5" x1="155.7" y1="143.6" x2="155.7" y2="117.9"/>
<line class="st5" x1="99.9" y1="143.6" x2="99.9" y2="117.9"/>
<g>
	<polygon class="st2" points="-13.9,93.3 -16.6,93 -16.6,93.3 	"/>
	<polygon class="st2" points="33.2,131.2 36.8,99 33.2,98.6 	"/>
	<polygon class="st2" points="-22.2,143.1 -24.2,161 -22.2,161.2 	"/>
	<polygon class="st2" points="1.6,163.9 29.2,167 29.5,163.9 	"/>
</g>
</svg>
