<?xml version="1.0" encoding="utf-8"?>
<!-- Generator: Adobe Illustrator 19.1.0, SVG Export Plug-In . SVG Version: 6.00 Build 0)  -->
<svg version="1.1" id="Layer_1" xmlns="http://www.w3.org/2000/svg" xmlns:xlink="http://www.w3.org/1999/xlink" x="0px" y="0px"
	 viewBox="0 0 258.3 181.3" style="enable-background:new 0 0 258.3 181.3;" xml:space="preserve">
<style type="text/css">
	.st0{fill:none;stroke:#211F1F;stroke-width:2;stroke-miterlimit:10;}
	.st1{fill:none;stroke:#6A817C;stroke-width:2;stroke-miterlimit:10;}
	.st2{clip-path:url(#XMLID_3_);fill:none;stroke:#211F1F;stroke-width:2;stroke-miterlimit:10;}
	.st3{fill:#FFFFFF;}
	.st4{clip-path:url(#XMLID_4_);fill:#FFFFFF;stroke:#211F1F;stroke-width:2;stroke-miterlimit:10;}
	.st5{fill:none;stroke:#00B48D;stroke-width:2;stroke-miterlimit:10;}
	.st6{fill:none;stroke:#56C5D0;stroke-width:2;stroke-miterlimit:10;}
	.st7{clip-path:url(#XMLID_5_);fill:none;stroke:#56C5D0;stroke-width:2;stroke-miterlimit:10;}
	.st8{clip-path:url(#XMLID_6_);fill:#FFFFFF;stroke:#F68D70;stroke-width:2;stroke-miterlimit:10;}
	.st9{fill:none;stroke:#F68D70;stroke-width:2;stroke-miterlimit:10;}
	.st10{clip-path:url(#XMLID_7_);fill:#FFFFFF;stroke:#211F1F;stroke-width:2;stroke-miterlimit:10;}
	.st11{clip-path:url(#XMLID_8_);fill:none;stroke:#2B4356;stroke-width:2;stroke-miterlimit:10;}
	.st12{clip-path:url(#XMLID_9_);fill:#FFFFFF;stroke:#211F1F;stroke-width:2;stroke-miterlimit:10;}
	.st13{fill:#FFFFFF;stroke:#211F1F;stroke-width:2;stroke-miterlimit:10;}
	.st14{fill:none;stroke:#67506C;stroke-width:2;stroke-miterlimit:10;}
	.st15{clip-path:url(#XMLID_10_);fill:none;stroke:#6A817C;stroke-width:2;stroke-miterlimit:10;}
	.st16{fill:#F4F5F5;}
	.st17{clip-path:url(#XMLID_11_);fill:#FFFFFF;stroke:#211F1F;stroke-width:2;stroke-miterlimit:10;}
	.st18{fill:none;stroke:#00B38D;stroke-width:3;stroke-miterlimit:10;}
	.st19{fill:#00B38D;}
	.st20{fill:#6A817C;}
	
		.st21{fill:none;stroke:#6A817C;stroke-width:0.5;stroke-linecap:round;stroke-linejoin:round;stroke-miterlimit:10;stroke-dasharray:0,2;}
	.st22{fill:none;stroke:#000000;stroke-width:0.5;stroke-miterlimit:10;}
	.st23{fill:none;stroke:#000000;stroke-width:1.5;stroke-miterlimit:10;}
</style>
<g>
	<g>
		<g>
			<line id="XMLID_190_" class="st0" x1="94.4" y1="180.1" x2="102.1" y2="180.1"/>
			<g>
				<line id="XMLID_189_" class="st0" x1="98" y1="121.1" x2="103.1" y2="121.1"/>
				<path id="XMLID_188_" class="st0" d="M95.8,120.2c0,12,0,56.2,0,56.2h4l6-57.1"/>
				<path id="XMLID_187_" class="st1" d="M95.8,118.8c0-7.2-4.7-16.2-4.7-21.5c0-5.3,4.6-10.8,4.6-10.8"/>
				<polyline id="XMLID_186_" class="st1" points="101.6,96.5 107.3,107.8 119.6,114.7 118,118.6 				"/>
				<line id="XMLID_185_" class="st1" x1="105.7" y1="110.9" x2="105.7" y2="118.2"/>
				<g id="XMLID_182_">
					<defs>
						<polygon id="XMLID_183_" points="106.4,72.7 101.8,76.6 100.3,77.6 94.1,79.8 93.8,70.9 102.8,68.6 						"/>
					</defs>
					<clipPath id="XMLID_3_">
						<use xlink:href="#XMLID_183_"  style="overflow:visible;"/>
					</clipPath>
					<path id="XMLID_184_" class="st2" d="M100.5,81.2c-3,0-5.4-2.4-5.4-5.4c0-3,2.4-5.4,5.4-5.4c1.7,0,3.3,0.8,4.2,2.1
						c-1.4,1.5-3.6,2.3-6.1,2.3"/>
				</g>
				<rect id="XMLID_181_" x="93.5" y="118.2" class="st3" width="14.1" height="2.1"/>
				<line id="XMLID_180_" class="st1" x1="94.9" y1="85.4" x2="101.6" y2="90.9"/>
				<polygon id="XMLID_179_" class="st3" points="103.1,112.8 116.7,117.9 109.3,110.9 103.1,108.6 				"/>
				<g id="XMLID_176_">
					<defs>
						<path id="XMLID_177_" d="M97.2,83.8l3.3-7.4c2.1,1.3,4.3-0.3,6.2-1.9l-0.5,13.1l-2.4,1.5L97.2,83.8z"/>
					</defs>
					<clipPath id="XMLID_4_">
						<use xlink:href="#XMLID_177_"  style="overflow:visible;"/>
					</clipPath>
					<path id="XMLID_178_" class="st4" d="M99.1,89.4l1.6-6.2c3,0.6,4.7-1.6,4.7-4.3c0-0.9,0-4.4,0-5.5"/>
				</g>
			</g>
		</g>
		<g>
			<path id="XMLID_175_" class="st5" d="M138.6,94.1"/>
			<path id="XMLID_174_" class="st5" d="M140.6,98.8"/>
			<polygon id="XMLID_173_" class="st3" points="139.4,99.6 142.9,99.6 142.9,98.1 139,98.1 			"/>
			<g id="XMLID_171_">
				<polyline id="XMLID_172_" class="st6" points="144.4,118.6 147.9,144.8 135.3,144.8 				"/>
			</g>
			<path id="XMLID_170_" class="st0" d="M138,147.1l-1.2,5l-17.2,23.3l-2.9-2c4-7.3,6.4-16,13.4-22.1l0.9-4.2"/>
			<path id="XMLID_169_" class="st0" d="M140.9,147.6c0.6,6.5,6.5,30.1,6.5,30.1h3.5l-3.1-30.7"/>
			<path id="XMLID_168_" class="st6" d="M130.7,99.5c0,2.6,0.6,5.8,1.1,8.2c1,4.2,2.4,10.3,2.4,10.3l-7.5,26.9h12.6"/>
			<line id="XMLID_167_" class="st0" x1="152.8" y1="180.1" x2="146.7" y2="180.1"/>
			<line id="XMLID_166_" class="st0" x1="119.6" y1="179" x2="114.2" y2="175.2"/>
			<rect id="XMLID_165_" x="125.1" y="146.7" class="st3" width="25.8" height="1"/>
			<g id="XMLID_162_">
				<defs>
					<polyline id="XMLID_163_" points="141.2,100 143.7,108.6 148.8,101.4 145.4,99.5 140.1,99.5 					"/>
				</defs>
				<clipPath id="XMLID_5_">
					<use xlink:href="#XMLID_163_"  style="overflow:visible;"/>
				</clipPath>
				<path id="XMLID_164_" class="st7" d="M141,95.7c1.8,2.5,3.4,4.5,3.1,6.8c-0.2,1.8-1.6,3.7-2.3,4.5"/>
			</g>
			<path id="XMLID_161_" class="st0" d="M156.9,127.8c0.3-0.6,0.4-1.3,0.3-1.9c-0.2-1.3-1-2.4-2.2-3l-11.5-9c0,0-4.4-12.1-6-16.4
				c-1.8-4.9-5.1-4.4-5.1-4.4c-1.5,1.3-2.2,1.9-2.2,5"/>
			<g id="XMLID_158_">
				<defs>
					<polygon id="XMLID_159_" points="143.2,79.1 135.7,79.1 131,84.8 128.3,84.8 128.3,70.6 143.2,70.6 					"/>
				</defs>
				<clipPath id="XMLID_6_">
					<use xlink:href="#XMLID_159_"  style="overflow:visible;"/>
				</clipPath>
				<circle id="XMLID_160_" class="st8" cx="135.7" cy="78.9" r="4.9"/>
			</g>
			<line id="XMLID_157_" class="st9" x1="136.5" y1="78.2" x2="140.3" y2="78.2"/>
			<polygon id="XMLID_156_" class="st3" points="140.9,118.6 150.8,124.6 147.9,119.3 142.9,115.6 			"/>
			<path id="XMLID_155_" class="st9" d="M132.3,75.4l-0.8-0.6c-2.3-1.9-5.8-0.2-5.8,2.8l0,3.9c0,1.8-0.7,4-3.2,4.7
				c0,0,0.6,3.5,4.6,3.5c2.6,0,4-2,4-3.1"/>
			<g id="XMLID_152_">
				<defs>
					<path id="XMLID_153_" d="M133.1,89.6l2.2-9.3c2.9,0,5,0,6.6,0L141,92.9L133.1,89.6z"/>
				</defs>
				<clipPath id="XMLID_7_">
					<use xlink:href="#XMLID_153_"  style="overflow:visible;"/>
				</clipPath>
				<path id="XMLID_154_" class="st10" d="M134.6,90l1.1-2.9c3,0.6,4.7-1.6,4.7-4.3c0-0.9,0-4.4,0-5.5"/>
			</g>
		</g>
		<g id="XMLID_135_">
			<polyline id="XMLID_151_" class="st6" points="34.6,104.3 32.3,100.4 23.3,104.6 15.9,100 			"/>
			<polygon id="XMLID_150_" class="st3" points="19.8,97.9 19.3,107.1 16.9,106.7 16.9,97.6 			"/>
			<line id="XMLID_149_" class="st0" x1="8.8" y1="120.3" x2="14" y2="120.3"/>
			<path id="XMLID_148_" class="st0" d="M7.3,139.2c0,12.3,0,37.6,0,37.6h4l5.3-58.9"/>
			<line id="XMLID_147_" class="st0" x1="5.9" y1="180.1" x2="13.8" y2="180.1"/>
			<path id="XMLID_146_" class="st6" d="M2.3,93.7c0-5.4,4.9-6.5,4.9-6.5s8.8,6.3,9.5,13.5L16,117.6"/>
			<path id="XMLID_145_" class="st0" d="M2.9,134.5c2.1,0,3.8-1.7,3.8-3.8"/>
			<g id="XMLID_142_">
				<defs>
					<polygon id="XMLID_143_" points="25.3,71.8 17.3,77.1 15.6,78.4 6.8,79 8.6,70.1 18,69.8 					"/>
				</defs>
				<clipPath id="XMLID_8_">
					<use xlink:href="#XMLID_143_"  style="overflow:visible;"/>
				</clipPath>
				<path id="XMLID_144_" class="st11" d="M12.8,81.9c-3-0.7-4.8-3.6-4.1-6.6c0.7-3,3.6-4.8,6.6-4.1c1.7,0.4,2.9,0.9,5.3,1.6
					c-0.3,1.9-3.5,2.7-5.5,2.5c-1,1.2-1.3,2.4-1.4,3.7"/>
			</g>
			<rect id="XMLID_141_" x="5.1" y="117.3" class="st3" width="14.4" height="2.1"/>
			<polyline id="XMLID_140_" class="st6" points="6.7,94.1 6.6,128 2.8,128 			"/>
			<g id="XMLID_137_">
				<defs>
					<path id="XMLID_138_" d="M9.4,83.8l5-6.6c1.8,1.8,4.3,0.7,6.6-0.4l-3.5,13l-2.8,0.9L9.4,83.8z"/>
				</defs>
				<clipPath id="XMLID_9_">
					<use xlink:href="#XMLID_138_"  style="overflow:visible;"/>
				</clipPath>
				<path id="XMLID_139_" class="st12" d="M10,89.9l3.1-5.8c2.8,1.3,5-0.5,5.6-3.2c0.2-0.9,1-4.3,1.3-5.4"/>
			</g>
			<line id="XMLID_136_" class="st13" x1="38.8" y1="90.7" x2="35.4" y2="98.8"/>
		</g>
		<g>
			<path id="XMLID_134_" class="st0" d="M210.1,143c0,12,0,33.6,0,33.6h4l4.5-56"/>
			<line id="XMLID_133_" class="st0" x1="208.5" y1="180.1" x2="216.2" y2="180.1"/>
			<path id="XMLID_132_" class="st14" d="M205.2,95.3c0-5.3,4.8-6.4,4.8-6.4s8.6,6.1,9.3,13.2l-0.6,16.5"/>
			<path id="XMLID_131_" class="st0" d="M205.8,136.6c2,0,3.7-1.7,3.7-3.7"/>
			<g id="XMLID_128_">
				<defs>
					<polygon id="XMLID_129_" points="221.5,69 215.1,75.8 213.8,77.4 205.5,80 205.2,71.1 214.1,68.8 					"/>
				</defs>
				<clipPath id="XMLID_10_">
					<use xlink:href="#XMLID_129_"  style="overflow:visible;"/>
				</clipPath>
				<path id="XMLID_130_" class="st15" d="M211.9,81.4c-3,0-5.4-2.4-5.4-5.4c0-3,2.4-5.4,5.4-5.4c1.7,0,3,0.2,5.5,0.4
					c0.1,1.8-2.7,3.3-4.7,3.6c-0.7,1.4-0.7,2.6-0.5,3.8"/>
			</g>
			<rect id="XMLID_127_" x="208" y="118.4" class="st16" width="14.1" height="2.1"/>
			<polyline id="XMLID_126_" class="st14" points="209.5,95.7 209.5,130.3 205.7,130.3 			"/>
			<g id="XMLID_122_">
				<defs>
					<path id="XMLID_123_" d="M209,84l3.3-7.4c2.1,1.3,4.3-0.3,6.2-1.9l-0.5,13.1l-2.4,1.5L209,84z"/>
				</defs>
				<clipPath id="XMLID_11_">
					<use xlink:href="#XMLID_123_"  style="overflow:visible;"/>
				</clipPath>
				<path id="XMLID_124_" class="st17" d="M210.9,89.6l1.6-6.2c3,0.6,4.7-1.6,4.7-4.3c0-0.9,0-4.4,0-5.5"/>
			</g>
		</g>
	</g>
	<g>
		<polyline class="st6" points="157.2,50.2 157.2,36 247.6,36 247.6,181.3 		"/>
		<line class="st6" x1="255.6" y1="36" x2="255.6" y2="181.3"/>
	</g>
	<g id="XMLID_120_">
		<g>
			<line class="st18" x1="13.8" y1="60" x2="13.8" y2="46.5"/>
			<g>
				<polygon class="st19" points="17.3,47.5 13.8,41.3 10.2,47.5 				"/>
			</g>
		</g>
	</g>
	<g>
		<g>
			<g>
				<rect x="0.7" y="0.8" class="st3" width="26" height="33.5"/>
				<g>
					<path class="st20" d="M26,1.5v32H1.5l0-32H26 M27.5,0H0l0,35h27.5V0L27.5,0z"/>
				</g>
			</g>
		</g>
		<line class="st21" x1="3.5" y1="22" x2="24.1" y2="22"/>
		<g>
			<line class="st22" x1="18.5" y1="27.3" x2="18.5" y2="30.3"/>
			<line class="st22" x1="16.1" y1="27.3" x2="16.1" y2="30.3"/>
			<line class="st22" x1="14" y1="27.3" x2="14" y2="30.3"/>
			<line class="st22" x1="11.5" y1="27.3" x2="11.5" y2="30.3"/>
			<line class="st22" x1="9.2" y1="27.3" x2="9.2" y2="30.3"/>
			<line class="st22" x1="6.2" y1="27.3" x2="6.2" y2="30.3"/>
			<line class="st22" x1="3.5" y1="27.3" x2="3.5" y2="30.3"/>
		</g>
		<line class="st23" x1="3.5" y1="4.8" x2="24.1" y2="4.8"/>
		<line class="st23" x1="3.5" y1="8.9" x2="16.4" y2="8.9"/>
	</g>
</g>
</svg>
