<?xml version="1.0" encoding="utf-8"?>
<!-- Generator: Adobe Illustrator 19.1.0, SVG Export Plug-In . SVG Version: 6.00 Build 0)  -->
<svg version="1.1" id="Layer_1" xmlns="http://www.w3.org/2000/svg" xmlns:xlink="http://www.w3.org/1999/xlink" x="0px" y="0px"
	 viewBox="-14 53.7 259 182.3" style="enable-background:new -14 53.7 259 182.3;" xml:space="preserve">
<style type="text/css">
	.st0{fill:none;stroke:#56C5D0;stroke-width:2;stroke-miterlimit:10;}
	.st1{fill:#FFFFFF;}
	.st2{fill:none;stroke:#211F1F;stroke-width:2;stroke-miterlimit:10;}
	.st3{clip-path:url(#SVGID_2_);fill:none;stroke:#2B4356;stroke-width:2;stroke-miterlimit:10;}
	.st4{clip-path:url(#SVGID_4_);fill:#FFFFFF;stroke:#211F1F;stroke-width:2;stroke-miterlimit:10;}
	.st5{fill:none;stroke:#00B38D;stroke-width:3;stroke-miterlimit:10;}
	.st6{fill:#00B38D;}
	.st7{fill:#6A817C;}
	
		.st8{fill:none;stroke:#6A817C;stroke-width:0.5;stroke-linecap:round;stroke-linejoin:round;stroke-miterlimit:10;stroke-dasharray:0,2;}
	.st9{fill:none;stroke:#010101;stroke-width:0.5;stroke-miterlimit:10;}
	.st10{fill:none;stroke:#010101;stroke-width:1.5;stroke-miterlimit:10;}
</style>
<g id="XMLID_135_">
	<polyline id="XMLID_151_" class="st0" points="29.2,159 26.9,155.1 17.9,159.3 10.6,154.7 	"/>
	<polygon id="XMLID_150_" class="st1" points="14.4,152.6 13.9,161.8 11.5,161.4 11.5,152.3 	"/>
	<line id="XMLID_149_" class="st2" x1="3.4" y1="175" x2="8.7" y2="175"/>
	<path id="XMLID_148_" class="st2" d="M1.9,193.9c0,12.3,0,37.6,0,37.6h4l5.3-58.9"/>
	<line id="XMLID_147_" class="st2" x1="0.5" y1="234.8" x2="8.4" y2="234.8"/>
	<path id="XMLID_146_" class="st0" d="M-3.1,148.4c0-5.4,4.9-6.5,4.9-6.5s8.8,6.3,9.5,13.5l-0.6,16.9"/>
	<path id="XMLID_145_" class="st2" d="M-2.5,189.2c2.1,0,3.8-1.7,3.8-3.8"/>
	<g id="XMLID_142_">
		<g>
			<g>
				<defs>
					<polygon id="SVGID_1_" points="19.9,126.5 11.9,131.8 10.2,133.1 1.4,133.7 3.2,124.8 12.6,124.5 					"/>
				</defs>
				<clipPath id="SVGID_2_">
					<use xlink:href="#SVGID_1_"  style="overflow:visible;"/>
				</clipPath>
				<path id="XMLID_144_" class="st3" d="M7.5,136.6c-3-0.7-4.8-3.6-4.1-6.6s3.6-4.8,6.6-4.1c1.7,0.4,2.9,0.9,5.3,1.6
					c-0.3,1.9-3.5,2.7-5.5,2.5c-1,1.2-1.3,2.4-1.4,3.7"/>
			</g>
		</g>
	</g>
	<rect id="XMLID_141_" x="-0.3" y="172" class="st1" width="14.4" height="2.1"/>
	<polyline id="XMLID_140_" class="st0" points="1.3,148.8 1.2,182.7 -2.6,182.7 	"/>
	<g id="XMLID_137_">
		<g>
			<g>
				<defs>
					<path id="SVGID_3_" d="M4,138.5l5-6.6c1.8,1.8,4.3,0.7,6.6-0.4l-3.5,13l-2.8,0.9L4,138.5z"/>
				</defs>
				<clipPath id="SVGID_4_">
					<use xlink:href="#SVGID_3_"  style="overflow:visible;"/>
				</clipPath>
				<path id="XMLID_139_" class="st4" d="M4.6,144.6l3.1-5.8c2.8,1.3,5-0.5,5.6-3.2c0.2-0.9,1-4.3,1.3-5.4"/>
			</g>
		</g>
	</g>
	<line id="XMLID_136_" class="st2" x1="33.4" y1="145.4" x2="30" y2="153.5"/>
</g>
<g id="XMLID_120_">
	<g>
		<line class="st5" x1="8.4" y1="114.7" x2="8.4" y2="101.2"/>
		<g>
			<polygon class="st6" points="12,102.2 8.4,96 4.8,102.2 			"/>
		</g>
	</g>
</g>
<g>
	<g>
		<g>
			<g>
				<path class="st7" d="M20.6,56.2v32H-3.9v-32L20.6,56.2 M22.1,54.7H-5.4v35h27.5V54.7L22.1,54.7z"/>
			</g>
		</g>
	</g>
	<line class="st8" x1="-1.8" y1="76.7" x2="18.7" y2="76.7"/>
	<g>
		<line class="st9" x1="13.1" y1="82" x2="13.1" y2="85"/>
		<line class="st9" x1="10.7" y1="82" x2="10.7" y2="85"/>
		<line class="st9" x1="8.6" y1="82" x2="8.6" y2="85"/>
		<line class="st9" x1="6.1" y1="82" x2="6.1" y2="85"/>
		<line class="st9" x1="3.8" y1="82" x2="3.8" y2="85"/>
		<line class="st9" x1="0.8" y1="82" x2="0.8" y2="85"/>
		<line class="st9" x1="-1.8" y1="82" x2="-1.8" y2="85"/>
	</g>
	<line class="st10" x1="-1.8" y1="59.5" x2="18.7" y2="59.5"/>
	<line class="st10" x1="-1.8" y1="63.6" x2="11" y2="63.6"/>
</g>
</svg>
