<?xml version="1.0" encoding="utf-8"?>
<!-- Generator: Adobe Illustrator 19.1.0, SVG Export Plug-In . SVG Version: 6.00 Build 0)  -->
<svg version="1.1" id="Layer_1" xmlns="http://www.w3.org/2000/svg" xmlns:xlink="http://www.w3.org/1999/xlink" x="0px" y="0px"
	 viewBox="0 0 347.5 150" style="enable-background:new 0 0 347.5 150;" xml:space="preserve">
<style type="text/css">
	.st0{fill:none;stroke:#211F1F;stroke-width:3;stroke-miterlimit:10;}
	.st1{fill:none;stroke:#56C5D0;stroke-width:3;stroke-miterlimit:10;}
	.st2{fill:none;stroke:#F3957D;stroke-width:3;stroke-miterlimit:10;}
	
		.st3{fill:none;stroke:#59C3CB;stroke-width:2;stroke-linecap:round;stroke-linejoin:round;stroke-miterlimit:10;stroke-dasharray:0,5.2822;}
	.st4{fill:none;stroke:#00B48D;stroke-width:3;stroke-miterlimit:10;}
	.st5{fill:#00B48D;stroke:#00B48D;stroke-width:3;stroke-miterlimit:10;}
	.st6{fill:none;stroke:#221F1F;stroke-width:3;stroke-miterlimit:10;}
</style>
<g>
	<g>
		<g>
			<g>
				<circle id="XMLID_43_" class="st0" cx="191.6" cy="140.6" r="5.8"/>
				<circle id="XMLID_39_" class="st0" cx="237.8" cy="140.6" r="5.8"/>
				<polyline id="XMLID_38_" class="st1" points="237.8,118 237.8,100.6 179.2,100.6 179.2,134.9 				"/>
				<polyline id="XMLID_37_" class="st1" points="249.2,134.9 258.2,134.9 258.2,117.7 223.2,117.7 				"/>
				<line id="XMLID_28_" class="st2" x1="223.2" y1="134.9" x2="205.1" y2="134.9"/>
				<path id="XMLID_27_" class="st0" d="M249.2,132.4"/>
			</g>
		</g>
		<g>
			<line id="XMLID_26_" class="st3" x1="190.7" y1="40.4" x2="190.7" y2="89.9"/>
			<path class="st4" d="M200.3,25.1c0,1.3,2.2,2.2,2.2,2.2v0.9h-23.6v-0.9c0,0,2.2-1.1,2.2-2.2c0-1.1,0-13.6,0-13.6
				c0-5.3,4.3-9.6,9.6-9.6c5.3,0,9.6,4.3,9.6,9.6C200.3,11.6,200.3,23.8,200.3,25.1z"/>
			<path class="st5" d="M193.7,28.2c0,1.7-1.3,3-3,3s-3-1.3-3-3"/>
		</g>
		<polyline id="XMLID_25_" class="st4" points="272.3,134.9 296.9,134.9 296.9,31.1 326.3,31.1 326.3,14.3 343.7,31.6 326.3,49 
			326.3,38.5 		"/>
	</g>
	<g>
		<g>
			<line id="XMLID_24_" class="st6" x1="98.1" y1="123.5" x2="98.1" y2="148.5"/>
			<circle id="XMLID_19_" class="st4" cx="98.1" cy="109.8" r="13.7"/>
		</g>
		<polyline class="st6" points="2,148.3 2,81 33.7,81 33.7,126.7 		"/>
		<polyline class="st6" points="30.9,135.2 47.5,135.2 47.5,118.9 65.6,118.9 65.6,135.2 89,135.2 		"/>
		<polyline class="st6" points="107.8,135.2 126.4,135.2 126.4,118.9 158.3,128.1 158.3,148.5 		"/>
	</g>
</g>
</svg>
