<?xml version="1.0" encoding="utf-8"?>
<!-- Generator: Adobe Illustrator 19.1.0, SVG Export Plug-In . SVG Version: 6.00 Build 0)  -->
<svg version="1.1" id="Layer_1" xmlns="http://www.w3.org/2000/svg" xmlns:xlink="http://www.w3.org/1999/xlink" x="0px" y="0px"
	 viewBox="0 0 347.5 150" style="enable-background:new 0 0 347.5 150;" xml:space="preserve">
<style type="text/css">
	.st0{fill:none;stroke:#221F1F;stroke-width:3;stroke-miterlimit:10;}
	.st1{fill:none;stroke:#F69679;stroke-width:3;stroke-miterlimit:10;}
	.st2{fill:none;stroke:#211F1F;stroke-width:3;stroke-miterlimit:10;}
	.st3{fill:none;stroke:#56C5D0;stroke-width:3;stroke-miterlimit:10;}
	.st4{fill:none;stroke:#F4967C;stroke-width:3;stroke-miterlimit:10;}
	.st5{fill:none;stroke:#81756F;stroke-width:3;stroke-miterlimit:10;}
	.st6{fill:none;stroke:#4DC2BF;stroke-width:3;stroke-miterlimit:10;}
	
		.st7{fill:none;stroke:#58C4CC;stroke-width:2;stroke-linecap:round;stroke-linejoin:round;stroke-miterlimit:10;stroke-dasharray:0,5.2822;}
</style>
<g>
	<g>
		<path class="st0" d="M218.8,43.7c0,14.5-19,39.2-19,39.2s-19-24.7-19-39.2c0-10.5,8.5-19,19-19C210.3,24.7,218.8,33.2,218.8,43.7z
			"/>
		<circle class="st1" cx="199.8" cy="43.7" r="8.6"/>
	</g>
	<g>
		<g>
			<line class="st2" x1="68.4" y1="142.2" x2="68.4" y2="148.9"/>
			<line class="st2" x1="95" y1="142.2" x2="95" y2="148.9"/>
		</g>
		<polygon class="st3" points="97.3,123.7 97.3,109.4 66.1,109.4 66.1,123.7 62,123.7 62,138 101.4,138 101.4,123.7 		"/>
		<line class="st4" x1="92" y1="123.7" x2="71.4" y2="123.7"/>
		<g>
			<circle class="st2" cx="69" cy="131.2" r="2"/>
			<circle class="st2" cx="94.4" cy="131.2" r="2"/>
		</g>
	</g>
	<g>
		<g>
			<line class="st2" x1="128.2" y1="142.2" x2="128.2" y2="148.9"/>
			<line class="st2" x1="154.7" y1="142.2" x2="154.7" y2="148.9"/>
		</g>
		<polygon class="st5" points="157.1,123.7 157.1,109.4 125.8,109.4 125.8,123.7 121.7,123.7 121.7,138 161.1,138 161.1,123.7 		"/>
		<line class="st6" x1="151.7" y1="123.7" x2="131.1" y2="123.7"/>
		<g>
			<circle class="st2" cx="128.7" cy="131.2" r="2"/>
			<circle class="st2" cx="154.1" cy="131.2" r="2"/>
		</g>
	</g>
	<g>
		<g>
			<line class="st2" x1="249.1" y1="142.2" x2="249.1" y2="148.9"/>
			<line class="st2" x1="275.6" y1="142.2" x2="275.6" y2="148.9"/>
		</g>
		<polygon class="st3" points="278,123.7 278,109.4 246.7,109.4 246.7,123.7 242.7,123.7 242.7,138 282,138 282,123.7 		"/>
		<line class="st4" x1="272.6" y1="123.7" x2="252.1" y2="123.7"/>
		<g>
			<circle class="st2" cx="249.7" cy="131.2" r="2"/>
			<circle class="st2" cx="275" cy="131.2" r="2"/>
		</g>
	</g>
	<line class="st7" x1="199.8" y1="141.9" x2="199.8" y2="91.8"/>
</g>
</svg>
