<?xml version="1.0" encoding="utf-8"?>
<!-- Generator: Adobe Illustrator 19.1.0, SVG Export Plug-In . SVG Version: 6.00 Build 0)  -->
<svg version="1.1" id="Layer_1" xmlns="http://www.w3.org/2000/svg" xmlns:xlink="http://www.w3.org/1999/xlink" x="0px" y="0px"
	 viewBox="-92 63.2 102.7 163.8" style="enable-background:new -92 63.2 102.7 163.8;" xml:space="preserve">
<style type="text/css">
	.st0{fill:none;stroke:#67506C;stroke-width:2;stroke-miterlimit:10;stroke-dasharray:4,4;}
	.st1{fill:none;stroke:#000000;stroke-miterlimit:10;}
	.st2{fill:none;stroke:#000000;stroke-width:2;stroke-miterlimit:10;}
	.st3{fill:none;stroke:#221F1F;stroke-miterlimit:10;}
	.st4{fill:none;stroke:#F68D70;stroke-miterlimit:10;}
	
		.st5{fill:none;stroke:#50C3CB;stroke-width:2;stroke-linecap:round;stroke-linejoin:round;stroke-miterlimit:10;stroke-dasharray:0,7;}
</style>
<g>
	<g>
		<g>
			<polygon class="st0" points="-46.5,160.9 -91,160.6 -90.9,81.5 -46.4,81.7 			"/>
		</g>
		<g>
			<line class="st1" x1="-81.8" y1="141.5" x2="-81.9" y2="155.3"/>
			<line class="st1" x1="-63.5" y1="141.6" x2="-63.6" y2="155.3"/>
			<line class="st1" x1="-61.6" y1="141.6" x2="-61.6" y2="155.3"/>
			<line class="st1" x1="-79.5" y1="141.5" x2="-79.6" y2="155.3"/>
			<line class="st1" x1="-71" y1="141.6" x2="-71.1" y2="155.3"/>
			<line class="st1" x1="-74.2" y1="141.6" x2="-74.2" y2="155.3"/>
			<line class="st1" x1="-75.9" y1="141.6" x2="-76" y2="155.3"/>
			<line class="st1" x1="-68.5" y1="141.6" x2="-68.5" y2="155.3"/>
			<line class="st1" x1="-57.6" y1="141.6" x2="-57.6" y2="155.3"/>
			<line class="st1" x1="-55.5" y1="141.6" x2="-55.6" y2="155.4"/>
			<line class="st1" x1="-65.7" y1="141.6" x2="-65.7" y2="155.3"/>
		</g>
		<g>
			<line class="st2" x1="-83.4" y1="126.3" x2="-54" y2="126.3"/>
			<line class="st2" x1="-83.4" y1="132.5" x2="-64.8" y2="132.5"/>
		</g>
		<g>
			<g>
				<polyline class="st3" points="-76.9,99.1 -76.9,92.5 -70.6,90.5 				"/>
				<path class="st4" d="M-72.5,114c-0.7,0.4-1.5,0.6-2.4,0.6c-2.6,0-4.7-2.1-4.7-4.7s2.1-4.7,4.7-4.7c0.9,0,1.7,0.2,2.4,0.6"/>
				<polyline class="st3" points="-76.6,100.5 -83.1,100.5 -83.1,99.1 -70.6,99.1 -70.6,100.5 -72,100.5 -72.7,119.9 -81.1,119.9 
					-81.8,100.5 				"/>
			</g>
			<g>
				<rect x="-66.7" y="116.8" class="st3" width="11.6" height="3.1"/>
				<path class="st3" d="M-55.1,108.5h-11.6v-3.1c0,0,0.5-2.1,5.8-2.1s5.8,2.1,5.8,2.1S-55.1,108.5-55.1,108.5z"/>
				<rect x="-67.8" y="113.3" class="st4" width="13.8" height="1.7"/>
				<path class="st3" d="M-55.1,111c-1.4,0-1.4-1.2-2.9-1.2c-1.4,0-1.4,1.2-2.9,1.2s-1.5-1.2-2.9-1.2c-1.5,0-1.5,1.2-2.9,1.2"/>
			</g>
		</g>
	</g>
</g>
<polyline class="st5" points="-69.4,171.3 -69.4,216.4 -5,216.4 "/>
</svg>
