<?xml version="1.0" encoding="utf-8"?>
<!-- Generator: Adobe Illustrator 19.1.0, SVG Export Plug-In . SVG Version: 6.00 Build 0)  -->
<svg version="1.1" id="Layer_1" xmlns="http://www.w3.org/2000/svg" xmlns:xlink="http://www.w3.org/1999/xlink" x="0px" y="0px"
	 viewBox="136.7 63.2 119.3 163.8" style="enable-background:new 136.7 63.2 119.3 163.8;" xml:space="preserve">
<style type="text/css">
	.st0{fill:none;stroke:#67506C;stroke-width:2;stroke-miterlimit:10;stroke-dasharray:4,4;}
	.st1{fill:none;stroke:#000000;stroke-width:2;stroke-miterlimit:10;}
	.st2{fill:none;stroke:#000000;stroke-width:4;stroke-miterlimit:10;}
	.st3{fill:none;stroke:#4EC2BF;stroke-width:4;stroke-miterlimit:10;}
	
		.st4{fill:none;stroke:#50C3CB;stroke-width:2;stroke-linecap:round;stroke-linejoin:round;stroke-miterlimit:10;stroke-dasharray:0,7;}
</style>
<g>
	<g>
		<g>
			<polygon class="st0" points="138.4,66.5 253.7,66.9 253.5,114 138.2,113.6 			"/>
		</g>
		<g>
			<line class="st1" x1="211.9" y1="88.9" x2="211.9" y2="107.1"/>
			<line class="st1" x1="235.7" y1="89" x2="235.7" y2="107.2"/>
			<line class="st1" x1="238.2" y1="89" x2="238.1" y2="107.2"/>
			<line class="st1" x1="215" y1="89" x2="214.9" y2="107.1"/>
			<line class="st1" x1="226" y1="89" x2="225.9" y2="107.2"/>
			<line class="st1" x1="221.8" y1="89" x2="221.8" y2="107.2"/>
			<line class="st1" x1="219.6" y1="89" x2="219.6" y2="107.1"/>
			<line class="st1" x1="229.3" y1="89" x2="229.2" y2="107.2"/>
			<line class="st1" x1="243.4" y1="89.1" x2="243.3" y2="107.2"/>
			<line class="st1" x1="246.1" y1="89.1" x2="246" y2="107.2"/>
			<line class="st1" x1="232.9" y1="89" x2="232.8" y2="107.2"/>
		</g>
		<g>
			<line class="st2" x1="146.1" y1="78.8" x2="201.5" y2="79"/>
			<line class="st3" x1="169" y1="88.4" x2="146.1" y2="88.3"/>
			<line class="st3" x1="146.1" y1="97.8" x2="179.6" y2="97.9"/>
		</g>
	</g>
</g>
<polyline class="st4" points="192.5,126.3 192.5,216.4 142.9,216.4 "/>
</svg>
