<?xml version="1.0" encoding="utf-8"?>
<!-- Generator: Adobe Illustrator 19.1.0, SVG Export Plug-In . SVG Version: 6.00 Build 0)  -->
<svg version="1.1" id="Layer_1" xmlns="http://www.w3.org/2000/svg" xmlns:xlink="http://www.w3.org/1999/xlink" x="0px" y="0px"
	 viewBox="-130.3 126.6 35.1 35.7" style="enable-background:new -130.3 126.6 35.1 35.7;" xml:space="preserve">
<style type="text/css">
	.st0{fill:none;stroke:#FFFFFF;stroke-miterlimit:10;}
	.st1{fill:none;stroke:#F68D70;stroke-miterlimit:10;}
</style>
<g>
	<g>
		<polyline class="st0" points="-121.1,138.6 -121.1,132 -114.8,130 		"/>
		<path class="st1" d="M-116.7,153.5c-0.7,0.4-1.5,0.6-2.4,0.6c-2.6,0-4.7-2.1-4.7-4.7c0-2.6,2.1-4.7,4.7-4.7c0.9,0,1.7,0.2,2.4,0.6
			"/>
		<polyline class="st0" points="-120.8,140 -127.3,140 -127.3,138.6 -114.8,138.6 -114.8,140 -116.2,140 -116.9,159.4 -125.3,159.4 
			-126,140 		"/>
	</g>
	<g>
		<rect x="-110.9" y="156.3" class="st0" width="11.6" height="3.1"/>
		<path class="st0" d="M-99.3,148h-11.6v-3.1c0,0,0.5-2.1,5.8-2.1s5.8,2.1,5.8,2.1V148z"/>
		<rect x="-112" y="152.8" class="st1" width="13.8" height="1.7"/>
		<path class="st0" d="M-99.3,150.5c-1.4,0-1.4-1.2-2.9-1.2c-1.4,0-1.4,1.2-2.9,1.2s-1.5-1.2-2.9-1.2c-1.4,0-1.5,1.2-2.9,1.2"/>
	</g>
</g>
</svg>
