<?xml version="1.0" encoding="utf-8"?>
<!-- Generator: Adobe Illustrator 19.1.0, SVG Export Plug-In . SVG Version: 6.00 Build 0)  -->
<svg version="1.1" id="Layer_1" xmlns="http://www.w3.org/2000/svg" xmlns:xlink="http://www.w3.org/1999/xlink" x="0px" y="0px"
	 viewBox="0 0 257.5 166.8" style="enable-background:new 0 0 257.5 166.8;" xml:space="preserve">
<style type="text/css">
	.st0{fill:none;stroke:#59C6CD;stroke-width:3;stroke-miterlimit:10;}
	.st1{fill:none;stroke:#00B48D;stroke-width:3;stroke-miterlimit:10;}
	.st2{fill:none;stroke:#F4977D;stroke-width:3;stroke-miterlimit:10;}
	.st3{fill:none;stroke:#211F1F;stroke-width:3;stroke-miterlimit:10;}
	.st4{fill:none;stroke:#221F1F;stroke-width:3;stroke-miterlimit:10;}
	.st5{fill:none;stroke:#010101;stroke-width:3;stroke-miterlimit:10;}
	.st6{fill:none;stroke:#F69679;stroke-width:3;stroke-miterlimit:10;}
</style>
<g>
	<g>
		<g>
			<path class="st0" d="M200.9,74.6c-13.7,0.1-24.8,11.2-24.8,24.9c0,13.7,11.1,24.9,24.9,24.9c13.7,0,24.9-11.1,24.9-24.9l-25,0
				L200.9,74.6z"/>
		</g>
		<path class="st1" d="M208.1,77.5C208.1,77.5,208,77.5,208.1,77.5L208,92.4l15,0C223,84.2,216.3,77.5,208.1,77.5z"/>
	</g>
	<g id="XMLID_317_">
		<rect id="XMLID_321_" x="29.1" y="36.1" class="st1" width="4.9" height="4.6"/>
		<rect id="XMLID_320_" x="37.4" y="29.2" class="st2" width="4.9" height="11.5"/>
		<rect id="XMLID_319_" x="45.7" y="21.2" class="st3" width="4.9" height="19.5"/>
		<line id="XMLID_318_" class="st3" x1="27.9" y1="45.2" x2="52.2" y2="45.2"/>
	</g>
	<rect x="15.9" y="60.7" class="st4" width="225.8" height="93.6"/>
	<rect x="15.9" y="10.6" class="st4" width="112.7" height="42.6"/>
	<rect x="135.9" y="10.6" class="st4" width="104.9" height="42.6"/>
	<g>
		<line class="st1" x1="144.8" y1="21.5" x2="167.9" y2="21.5"/>
		<line class="st1" x1="144.8" y1="28.4" x2="154.7" y2="28.4"/>
		<line class="st5" x1="144.8" y1="35.4" x2="167.9" y2="35.4"/>
		<line class="st1" x1="144.8" y1="42.3" x2="163.2" y2="42.3"/>
		<line class="st5" x1="175.3" y1="21.5" x2="194.9" y2="21.5"/>
		<line class="st5" x1="175.3" y1="28.4" x2="199.2" y2="28.4"/>
		<line class="st1" x1="175.3" y1="35.4" x2="196.6" y2="35.4"/>
		<line class="st5" x1="175.3" y1="42.3" x2="184.3" y2="42.3"/>
		<line class="st5" x1="205.8" y1="21.5" x2="226.1" y2="21.5"/>
		<line class="st1" x1="205.8" y1="28.4" x2="223.8" y2="28.4"/>
		<line class="st1" x1="205.8" y1="35.4" x2="230.8" y2="35.4"/>
		<line class="st5" x1="205.8" y1="42.3" x2="220.8" y2="42.3"/>
	</g>
	<g>
		<line class="st5" x1="63.6" y1="21.8" x2="116" y2="21.8"/>
		<line class="st6" x1="63.6" y1="28.8" x2="96.2" y2="28.8"/>
		<line class="st5" x1="63.6" y1="35.7" x2="101" y2="35.7"/>
		<line class="st5" x1="63.6" y1="42.7" x2="111.1" y2="42.7"/>
	</g>
	<g>
		<path class="st4" d="M47.7,116c0,7.3-9.5,19.7-9.5,19.7s-9.5-12.4-9.5-19.7c0-5.3,4.3-9.5,9.5-9.5C43.4,106.5,47.7,110.7,47.7,116
			z"/>
		<circle class="st6" cx="38.1" cy="116" r="4.3"/>
	</g>
	<line class="st5" x1="173.2" y1="139.1" x2="214" y2="139.1"/>
	<g>
		<line class="st5" x1="26.3" y1="70.8" x2="72.6" y2="70.8"/>
		<line class="st5" x1="26.3" y1="77.7" x2="142.4" y2="77.7"/>
		<line class="st6" x1="26.3" y1="84.7" x2="124" y2="84.7"/>
		<line class="st5" x1="26.3" y1="91.6" x2="84.3" y2="91.6"/>
	</g>
	<g>
		<line class="st0" x1="65.3" y1="130.7" x2="65.3" y2="123.6"/>
		<line class="st6" x1="73.8" y1="130.7" x2="73.8" y2="117.2"/>
		<line class="st0" x1="82.3" y1="130.7" x2="82.3" y2="109.5"/>
		<line class="st3" x1="84.3" y1="134.7" x2="63.2" y2="134.7"/>
	</g>
	<g>
		<line class="st5" x1="99.6" y1="113.5" x2="134.4" y2="113.5"/>
		<line class="st5" x1="99.6" y1="120.5" x2="130.3" y2="120.5"/>
		<line class="st6" x1="99.6" y1="127.4" x2="142.4" y2="127.4"/>
		<line class="st5" x1="99.6" y1="134.4" x2="125.3" y2="134.4"/>
	</g>
</g>
</svg>
