<?xml version="1.0" encoding="utf-8"?>
<!-- Generator: Adobe Illustrator 19.1.0, SVG Export Plug-In . SVG Version: 6.00 Build 0)  -->
<svg version="1.1" id="Layer_1" xmlns="http://www.w3.org/2000/svg" xmlns:xlink="http://www.w3.org/1999/xlink" x="0px" y="0px"
	 viewBox="0 0 265.9 165.1" style="enable-background:new 0 0 265.9 165.1;" xml:space="preserve">
<style type="text/css">
	.st0{fill:none;stroke:#211F1F;stroke-width:3;stroke-miterlimit:10;}
	.st1{fill:none;stroke:#00B188;stroke-width:3;stroke-miterlimit:10;}
</style>
<g>
	<g>
		<path id="XMLID_2_" class="st0" d="M175.3,120.8c0-3.7-3-6.8-6.8-6.8c-3.7,0-6.8,3-6.8,6.8l0.6,6.7c0.3,3.7,2.8,6.2,6.2,6.2
			c3.4,0,5.9-2.9,6.2-6.2L175.3,120.8z"/>
		<path id="XMLID_1_" class="st1" d="M187.9,163.7v-17l-12.7-2.9c-1.2,2.6-3.5,4.4-6.5,4.4c-3,0-5.4-1.7-6.6-4.4l-12.9,1.9v18"/>
	</g>
</g>
<g>
	<g>
		<path id="XMLID_4_" class="st0" d="M219.3,120.8c0-3.7-3-6.8-6.8-6.8c-3.7,0-6.8,3-6.8,6.8l0.6,6.7c0.3,3.7,2.8,6.2,6.2,6.2
			c3.4,0,5.9-2.9,6.2-6.2L219.3,120.8z"/>
		<path id="XMLID_3_" class="st1" d="M231.9,163.7v-17l-12.7-2.9c-1.2,2.6-3.5,4.4-6.5,4.4c-3,0-5.4-1.7-6.6-4.4l-12.9,1.9v18"/>
	</g>
</g>
<g>
	<g>
		<path id="XMLID_8_" class="st0" d="M42.6,120.8c0-3.7-3-6.8-6.8-6.8c-3.7,0-6.8,3-6.8,6.8l0.6,6.7c0.3,3.7,2.8,6.2,6.2,6.2
			c3.4,0,5.9-2.9,6.2-6.2L42.6,120.8z"/>
		<path id="XMLID_7_" class="st1" d="M55.2,163.7v-17l-12.7-2.9c-1.2,2.6-3.5,4.4-6.5,4.4c-3,0-5.4-1.7-6.6-4.4l-12.9,1.9v18"/>
	</g>
</g>
<g>
	<g>
		<path id="XMLID_6_" class="st0" d="M86.7,120.8c0-3.7-3-6.8-6.8-6.8c-3.7,0-6.8,3-6.8,6.8l0.6,6.7c0.3,3.7,2.8,6.2,6.2,6.2
			c3.4,0,5.9-2.9,6.2-6.2L86.7,120.8z"/>
		<path id="XMLID_5_" class="st1" d="M99.2,163.7v-17l-12.7-2.9c-1.2,2.6-3.5,4.4-6.5,4.4c-3,0-5.4-1.7-6.6-4.4l-12.9,1.9v18"/>
	</g>
</g>
</svg>
