<?xml version="1.0" encoding="utf-8"?>
<svg version="1.1" id="Layer_1" xmlns="http://www.w3.org/2000/svg" xmlns:xlink="http://www.w3.org/1999/xlink" x="0px" y="0px"
	 viewBox="0 0 266 163.8" style="enable-background:new 0 0 266 163.8;" xml:space="preserve">
<style type="text/css">
	.st0{fill:none;stroke:#211F1F;stroke-width:3;stroke-miterlimit:10;}
	.st1{fill:none;stroke:#00B188;stroke-width:3;stroke-miterlimit:10;}
	.st2{fill:none;stroke:#221F1F;stroke-width:2;stroke-miterlimit:10;}
	.st3{fill:none;stroke:#F69679;stroke-width:2;stroke-miterlimit:10;}
	.st4{fill:#FFFFFF;stroke:#67506C;stroke-width:2;stroke-miterlimit:10;stroke-dasharray:4,4;}
	.st5{fill:none;stroke:#000000;stroke-width:2;stroke-miterlimit:10;}
	.st6{fill:none;stroke:#000000;stroke-width:4;stroke-miterlimit:10;}
	.st7{fill:none;stroke:#4EC2BF;stroke-width:4;stroke-miterlimit:10;}
	.st8{fill:none;stroke:#000000;stroke-miterlimit:10;}
	.st9{fill:none;stroke:#221F1F;stroke-miterlimit:10;}
	.st10{fill:none;stroke:#F68D70;stroke-miterlimit:10;}
	
		.st11{fill:none;stroke:#50C3CB;stroke-width:2;stroke-linecap:round;stroke-linejoin:round;stroke-miterlimit:10;stroke-dasharray:0,7;}
</style>
<g>
	<g>
		<path id="XMLID_202_" class="st0" d="M130.6,120.8c0-3.7-3-6.8-6.8-6.8c-3.7,0-6.8,3-6.8,6.8l0.6,6.7c0.3,3.7,2.8,6.2,6.2,6.2
			c3.4,0,5.9-2.9,6.2-6.2L130.6,120.8z"/>
		<path id="XMLID_201_" class="st1" d="M143.2,163.8v-17l-12.7-2.9c-1.2,2.6-3.5,4.4-6.5,4.4c-3,0-5.4-1.7-6.6-4.4l-12.9,1.9v18"/>
	</g>
	<g>
		<path class="st2" d="M134.4,80.4c0,8.1-10.6,22-10.6,22s-10.6-13.9-10.6-22c0-5.9,4.8-10.6,10.6-10.6
			C129.7,69.8,134.4,74.5,134.4,80.4z"/>
		<circle class="st3" cx="123.8" cy="80.4" r="4.8"/>
	</g>
</g>
<g>
	<g>
		<g>
			
				<rect x="141.3" y="1.7" transform="matrix(1 3.199715e-03 -3.199715e-03 1 8.457891e-02 -0.6477)" class="st4" width="122.3" height="48.9"/>
		</g>
		<g>
			<line class="st5" x1="219.4" y1="24.7" x2="219.4" y2="43.6"/>
			<line class="st5" x1="244.6" y1="24.8" x2="244.6" y2="43.7"/>
			<line class="st5" x1="247.3" y1="24.8" x2="247.2" y2="43.7"/>
			<line class="st5" x1="222.6" y1="24.8" x2="222.5" y2="43.6"/>
			<line class="st5" x1="234.3" y1="24.8" x2="234.2" y2="43.7"/>
			<line class="st5" x1="229.9" y1="24.8" x2="229.9" y2="43.7"/>
			<line class="st5" x1="227.5" y1="24.8" x2="227.5" y2="43.6"/>
			<line class="st5" x1="237.8" y1="24.8" x2="237.7" y2="43.7"/>
			<line class="st5" x1="252.8" y1="24.9" x2="252.7" y2="43.7"/>
			<line class="st5" x1="255.6" y1="24.9" x2="255.5" y2="43.7"/>
			<line class="st5" x1="241.6" y1="24.8" x2="241.5" y2="43.7"/>
		</g>
		<g>
			<line class="st6" x1="149.6" y1="14.2" x2="208.3" y2="14.4"/>
			<line class="st7" x1="173.9" y1="24.2" x2="149.6" y2="24.1"/>
			<line class="st7" x1="149.6" y1="34" x2="185.1" y2="34.1"/>
		</g>
	</g>
</g>
<g>
	<g>
		<g>
			<polygon class="st4" points="45.5,97.7 1,97.4 1.1,18.3 45.6,18.5 			"/>
		</g>
		<g>
			<line class="st8" x1="10.2" y1="78.3" x2="10.1" y2="92.1"/>
			<line class="st8" x1="28.5" y1="78.4" x2="28.4" y2="92.1"/>
			<line class="st8" x1="30.4" y1="78.4" x2="30.4" y2="92.1"/>
			<line class="st8" x1="12.5" y1="78.3" x2="12.4" y2="92.1"/>
			<line class="st8" x1="21" y1="78.4" x2="20.9" y2="92.1"/>
			<line class="st8" x1="17.8" y1="78.4" x2="17.8" y2="92.1"/>
			<line class="st8" x1="16.1" y1="78.4" x2="16" y2="92.1"/>
			<line class="st8" x1="23.5" y1="78.4" x2="23.5" y2="92.1"/>
			<line class="st8" x1="34.4" y1="78.4" x2="34.4" y2="92.1"/>
			<line class="st8" x1="36.5" y1="78.4" x2="36.4" y2="92.2"/>
			<line class="st8" x1="26.3" y1="78.4" x2="26.3" y2="92.1"/>
		</g>
		<g>
			<line class="st5" x1="8.6" y1="63.1" x2="38" y2="63.1"/>
			<line class="st5" x1="8.6" y1="69.3" x2="27.2" y2="69.3"/>
		</g>
		<g>
			<g>
				<polyline class="st9" points="15.1,35.9 15.1,29.3 21.4,27.3 				"/>
				<path class="st10" d="M19.5,50.8c-0.7,0.4-1.5,0.6-2.4,0.6c-2.6,0-4.7-2.1-4.7-4.7s2.1-4.7,4.7-4.7c0.9,0,1.7,0.2,2.4,0.6"/>
				<polyline class="st9" points="15.4,37.3 8.9,37.3 8.9,35.9 21.4,35.9 21.4,37.3 20,37.3 19.3,56.7 10.9,56.7 10.2,37.3 				"/>
			</g>
			<g>
				<rect x="25.3" y="53.6" class="st9" width="11.6" height="3.1"/>
				<path class="st9" d="M36.9,45.3H25.3v-3.1c0,0,0.5-2.1,5.8-2.1s5.8,2.1,5.8,2.1V45.3z"/>
				<rect x="24.2" y="50.1" class="st10" width="13.8" height="1.7"/>
				<path class="st9" d="M36.9,47.8c-1.4,0-1.4-1.2-2.9-1.2c-1.4,0-1.4,1.2-2.9,1.2c-1.5,0-1.5-1.2-2.9-1.2c-1.5,0-1.5,1.2-2.9,1.2"
					/>
			</g>
		</g>
	</g>
</g>
<polyline class="st11" points="202.5,63.1 202.5,153.2 152.9,153.2 "/>
<polyline class="st11" points="22.6,108.1 22.6,153.2 87,153.2 "/>
</svg>
