<?xml version="1.0" encoding="utf-8"?>
<!-- Generator: Adobe Illustrator 19.1.0, SVG Export Plug-In . SVG Version: 6.00 Build 0)  -->
<svg version="1.1" id="Layer_1" xmlns="http://www.w3.org/2000/svg" xmlns:xlink="http://www.w3.org/1999/xlink" x="0px" y="0px"
	 viewBox="0 0 131.7 61.3" style="enable-background:new 0 0 131.7 61.3;" xml:space="preserve">
<style type="text/css">
	.st0{fill:none;stroke:#67506C;stroke-width:2;stroke-miterlimit:10;stroke-dasharray:4,4;}
	.st1{fill:none;stroke:#FFFFFF;stroke-width:2;stroke-miterlimit:10;}
	.st2{fill:none;stroke:#FFFFFF;stroke-width:4;stroke-miterlimit:10;}
	.st3{fill:none;stroke:#4EC2BF;stroke-width:4;stroke-miterlimit:10;}
</style>
<g>
	<g>
		<g>
			
				<rect x="3.9" y="5.4" transform="matrix(1 3.199715e-03 -3.199715e-03 1 9.573844e-02 -0.208)" class="st0" width="122.3" height="48.9"/>
		</g>
		<g>
			<line class="st1" x1="82" y1="28.5" x2="81.9" y2="47.3"/>
			<line class="st1" x1="107.2" y1="28.5" x2="107.1" y2="47.4"/>
			<line class="st1" x1="109.8" y1="28.5" x2="109.8" y2="47.4"/>
			<line class="st1" x1="85.2" y1="28.5" x2="85.1" y2="47.3"/>
			<line class="st1" x1="96.8" y1="28.5" x2="96.8" y2="47.4"/>
			<line class="st1" x1="92.5" y1="28.5" x2="92.5" y2="47.4"/>
			<line class="st1" x1="90.1" y1="28.5" x2="90" y2="47.4"/>
			<line class="st1" x1="100.3" y1="28.5" x2="100.3" y2="47.4"/>
			<line class="st1" x1="115.4" y1="28.6" x2="115.3" y2="47.4"/>
			<line class="st1" x1="118.1" y1="28.6" x2="118.1" y2="47.4"/>
			<line class="st1" x1="104.2" y1="28.5" x2="104.1" y2="47.4"/>
		</g>
		<g>
			<line class="st2" x1="12.2" y1="17.9" x2="70.9" y2="18.1"/>
			<line class="st3" x1="36.5" y1="27.9" x2="12.2" y2="27.8"/>
			<line class="st3" x1="12.1" y1="37.7" x2="47.6" y2="37.8"/>
		</g>
	</g>
</g>
</svg>
